<?xml version="1.0" encoding="utf-8"?><svg viewBox="0 0 556 556" xmlns="http://www.w3.org/2000/svg" xmlns:xlink="http://www.w3.org/1999/xlink"><style>:root>svg{display:none}:root>svg:target{display:block}</style><svg fill="#004687" viewBox="0 -46 417.813 417" id="check" xmlns="http://www.w3.org/2000/svg"><path d="M159.988 318.582c-3.988 4.012-9.43 6.25-15.082 6.25s-11.094-2.238-15.082-6.25L9.375 198.113c-12.5-12.5-12.5-32.77 0-45.246l15.082-15.086c12.504-12.5 32.75-12.5 45.25 0l75.2 75.203L348.104 9.781c12.504-12.5 32.77-12.5 45.25 0l15.082 15.086c12.5 12.5 12.5 32.766 0 45.246zm0 0"/></svg><svg viewBox="0 0 18 18" id="close" xmlns="http://www.w3.org/2000/svg"><defs><path id="ba" d="M691.485 160.07l-1.414 1.415-7.071-7.071-7.071 7.071-1.414-1.414 7.07-7.071-7.07-7.071 1.414-1.415 7.07 7.071 7.072-7.07 1.414 1.414-7.07 7.07z"/></defs><use fill="#2e2e2e" xlink:href="#ba" transform="translate(-674 -144)"/></svg><svg fill="none" viewBox="0 0 32 15" id="down" xmlns="http://www.w3.org/2000/svg"><path d="M.43 1.114L15.58 13.99 30.82 1.114" stroke="#fff"/></svg><svg viewBox="0 0 479.058 479.058" id="envelope" xmlns="http://www.w3.org/2000/svg"><path d="M434.146 59.882H44.912C20.146 59.882 0 80.028 0 104.794v269.47c0 24.766 20.146 44.912 44.912 44.912h389.234c24.766 0 44.912-20.146 44.912-44.912v-269.47c0-24.766-20.146-44.912-44.912-44.912zm0 29.941c2.034 0 3.969.422 5.738 1.159L239.529 264.631 39.173 90.982a14.902 14.902 0 015.738-1.159zm0 299.411H44.912c-8.26 0-14.971-6.71-14.971-14.971V122.615l199.778 173.141c2.822 2.441 6.316 3.655 9.81 3.655s6.988-1.213 9.81-3.655l199.778-173.141v251.649c-.001 8.26-6.711 14.97-14.971 14.97z"/></svg><svg fill="none" viewBox="0 0 31 42" id="for-tabs" xmlns="http://www.w3.org/2000/svg"><path d="M6.097 7.898h9.629m9.137 16.85H6.097m15.735 3.748H9.127M24.863 21H6.097m18.766-3.748H6.097m18.766-3.748H6.097M22.635 1.355V8.86h7.496M1.035 41V1h21.598l7.495 7.672V41H1.035z"/></svg><svg fill="none" viewBox="0 0 43 29" id="form01" xmlns="http://www.w3.org/2000/svg"><path d="M14.085 22.318v4.325m-2.289-4.325v4.709m-8.37-4.71v4.873c.63.316 1.515.386 2.146.07l.936-.467a2.24 2.24 0 012.002 0l.936.468c.63.315 1.373.315 2.003 0l.936-.468a2.24 2.24 0 012.002 0l1.008.511m-9.68-4.986v4.85M1.12 19.606h15.206v2.873H1.119v-2.873zM15.383 27.296l.936.468c.63.315 1.372.315 2.002 0l.936-.468a2.24 2.24 0 012.003 0l.936.468c.63.315 1.372.315 2.002 0l.936-.468a2.24 2.24 0 012.003 0l.936.468c.63.315 1.372.315 2.003 0l.936-.468a2.24 2.24 0 012.002 0l.938.468c.63.315 1.372.315 2.003 0l.936-.468a2.24 2.24 0 012.002 0l.936.468c.63.315 1.373.315 2.003 0l.936-.468M24.023 5.125V1.708h6.055m6.055 3.417V1.708h-6.055m0 0V0"/><path d="M21.781 27.546l-2.834-13.913L30.13 9.511l11.078 4.122-2.73 13.913M30.078 5.277v22.526"/><path d="M20.936 12.907V5.201h18.375v7.706M25.378 5.163v6.036M34.793 5.163v6.036M20.936 8.162h18.337"/></svg><svg fill="none" viewBox="0 0 23 30" id="form02" xmlns="http://www.w3.org/2000/svg"><path d="M19.866 20.483v6.733m-16.99 0v-6.733m16.99-8.782v6.732m-16.99 0v-6.732m16.99-8.587v6.733m-16.99 0V3.114"/><rect x="1.046" y="1" width="20.651" height="2.114" rx="1.057"/><path d="M12.085 9.629h8.555a1.057 1.057 0 110 2.114h-7.22m-2.865-2.114H2.103a1.057 1.057 0 100 2.114h7.14M15.213 18.257h5.427a1.057 1.057 0 110 2.114h-7.395m-5.687-2.114H2.103a1.057 1.057 0 100 2.114H9.7"/><rect x="1.046" y="26.886" width="20.651" height="2.114" rx="1.057"/><path d="M8.385 19.454l.081.08a4.203 4.203 0 006.509-5.24l-3.672-5.72-3.507 5.51a4.317 4.317 0 00.59 5.37zM11.464 19.23a2.71 2.71 0 01-2.71-2.71"/></svg><svg fill="none" viewBox="0 0 41 30" id="form03" xmlns="http://www.w3.org/2000/svg"><path d="M20.206 28.987l-.308.393.135.107h.173v-.5zM37.74 29v.5h.007l-.007-.5zm-.04-3.702l.005.5h.002l-.007-.5zm-10.117.094l-.353.353.148.149.21-.002-.005-.5zm-10.13-10.13l.354-.354-.146-.146h-.208v.5zm-12.468 0v-.5h-.5v.5h.5zm0 7.016h-.5v.5h.5v-.5zm6.682 0l.309-.393-.136-.107h-.173v.5zm13.07 2.927l.35.357-.35-.357zm-2.62-.026l.357-.35v-.001l-.357.35zm-1.91 4.308l17.533.013v-1l-17.533-.013v1zm17.54.013a2.36 2.36 0 002.324-2.378l-1 .014a1.36 1.36 0 01-1.337 1.364l.013 1zm2.324-2.378a2.36 2.36 0 00-2.377-2.324l.013 1a1.36 1.36 0 011.364 1.338l1-.014zm-2.375-2.324l-10.117.094.01 1 10.116-.094-.01-1zm-9.759.24l-10.13-10.13-.707.707 10.13 10.13.707-.707zM17.453 14.762H4.985v1h12.468v-1zm-12.968.5v7.016h1v-7.016h-1zm.5 7.516h6.682v-1H4.985v1zm6.373-.107l8.54 6.709.617-.787-8.54-6.708-.617.786zm13.049.265a1.355 1.355 0 01-.02 1.912l.7.714c.934-.917.934-2.41.034-3.326l-.714.7zm-.02 1.912a1.355 1.355 0 01-1.913-.02l-.713.7c.916.934 2.409.934 3.326.034l-.7-.714zm-1.913-.02l-4.704-4.784-.713.7 4.704 4.785.713-.701z"/><path d="M.535 14.321H4.8v8.941H.535zM38.345 12.191c-.411 3.714-3.487 6.6-7.221 6.6s-6.81-2.886-7.222-6.6m7.268-7.55v14.15M27.85 8.313h6.64m-11.722 6.321l.945-3.009 2.416 2.127m13.443.882l-.946-3.009-2.416 2.127M32.975 2.851c0 1.022-.808 1.85-1.805 1.85-.998 0-1.806-.828-1.806-1.85 0-1.022.808-1.851 1.806-1.851.997 0 1.805.829 1.805 1.85z"/></svg><svg fill="none" viewBox="0 0 40 30" id="hand_icon-01" xmlns="http://www.w3.org/2000/svg"><path d="M37.54 12.234c-.407 3.713-3.447 6.598-7.137 6.598-3.69 0-6.73-2.885-7.137-6.598m7.182-7.547v14.145m-3.28-10.474h6.562m-11.585 6.319l.934-3.008 2.388 2.126m13.285.882l-.934-3.008-2.388 2.126m-30.475 1.41h12.04l10.153 10.271h9.839c.974 0 1.764.8 1.764 1.786 0 .985-.79 1.785-1.764 1.785H19.799l-8.413-6.7h-6.43m14.952-4.18l4.473 4.525c.67.679.67 1.779 0 2.457a1.704 1.704 0 01-2.43 0l-4.774-4.83M.752 14.375h4.045v8.916H.752v-8.917zm31.48-11.478c0 1.021-.798 1.85-1.784 1.85-.985 0-1.784-.829-1.784-1.85 0-1.022.799-1.85 1.784-1.85.986 0 1.785.828 1.785 1.85z"/></svg><svg fill="none" viewBox="0 0 40 16" id="hand_icon-02" xmlns="http://www.w3.org/2000/svg"><path d="M5.115 1.542h12.04l10.153 10.27h9.839c.975 0 1.765.8 1.765 1.786s-.79 1.785-1.765 1.785H19.959l-8.413-6.7h-6.43m14.952-4.179l4.473 4.525c.67.678.67 1.778 0 2.456a1.704 1.704 0 01-2.429 0l-4.775-4.83M.912.71h4.045v8.917H.912V.71zm26.356 2.332a1.5 1.5 0 11-3 0 1.5 1.5 0 013 0zm5.822 0a1.5 1.5 0 11-3 0 1.5 1.5 0 013 0zm5.822 0a1.5 1.5 0 11-3 0 1.5 1.5 0 013 0z" stroke="#fff"/></svg><svg fill="none" viewBox="0 0 40 23" id="hand_icon-03" xmlns="http://www.w3.org/2000/svg"><path d="M34.336.48c1.024 0 1.325.581 1.325 1.244 0 .83-.68 1.596-1.836 1.596-.967 0-1.43-.477-1.403-1.264.002-.663.568-1.576 1.914-1.576zM32.1 13.4c-.669 0-1.16-.435-.69-2.345l.768-3.386c.133-.543.156-.76 0-.76-.2 0-1.07.375-1.583.744l-.333-.586c1.628-1.454 3.498-2.306 4.3-2.306.67 0 .781.846.447 2.149l-.88 3.56c-.155.628-.088.845.067.845.2 0 .858-.26 1.505-.804l.379.543c-1.583 1.693-3.31 2.345-3.98 2.345z" fill="#fff"/><path d="M5.035 7.771h12.04l10.153 10.27h9.839c.974 0 1.765.8 1.765 1.786s-.79 1.785-1.765 1.785H19.879l-8.413-6.7h-6.43m14.952-4.179l4.473 4.525c.67.678.67 1.778 0 2.457a1.704 1.704 0 01-2.429 0l-4.775-4.83M.832 6.94h4.045v8.916H.832V6.94z" stroke="#fff"/></svg><svg fill="none" viewBox="0 0 139 50" id="hover-line" xmlns="http://www.w3.org/2000/svg"><path d="M6.965 15H1.023V.5h136.942V49h-7.5" stroke="#004687"/></svg><svg fill="none" viewBox="0 0 18 30" id="line" xmlns="http://www.w3.org/2000/svg"><path d="M1.166 29l16.01-28" stroke="#fff"/></svg><svg viewBox="0 0 105 50.02" id="logo" xmlns="http://www.w3.org/2000/svg"><path d="M1.013 2.333a81.408 81.408 0 0111.488-.727c7.14 0 11.767 1.193 15.4 3.724 3.864 2.692 6.367 7.01 6.367 13.175 0 6.686-2.628 11.299-6.251 14.143-3.961 3.06-9.99 4.488-17.39 4.488a79.06 79.06 0 01-9.662-.512l.048-34.291zm8.531 28.503c.977.143 1.968.197 2.957.161 7.729.045 12.714-3.895 12.714-12.241.067-7.252-4.512-11.093-11.816-11.093a19.162 19.162 0 00-3.865.315l.01 22.858zM44.644 26.646c.27 3.266 3.73 4.81 7.73 4.81 2.552.032 5.093-.32 7.526-1.041l1.12 5.385a28.912 28.912 0 01-9.874 1.606c-9.265 0-14.56-5.026-14.56-12.968-.038-6.489 4.252-13.552 13.7-13.552 8.812 0 12.164 6.372 12.164 12.645a17.102 17.102 0 01-.28 3.115H44.644zm9.98-5.385c0-1.93-.888-5.134-4.83-5.134-3.565 0-5.024 3.007-5.246 5.134h10.076zM73.619 0h-8.483v36.795h8.483V0zM91.019 23.837h-6.667a20.346 20.346 0 011.073-6.193c1.829.433 3.706.665 5.594.692v5.5zm0 6.201a25.903 25.903 0 00-5.594.691 20.346 20.346 0 01-1.073-6.192h6.667v5.501zm.744-5.501h6.666a20.637 20.637 0 01-1.063 6.192 26.08 26.08 0 00-5.603-.69v-5.502zm0-6.201a26.08 26.08 0 005.603-.692 20.638 20.638 0 011.063 6.193h-6.666v-5.502zM80.024 32.694c-1.992-2.294-3.119-5.131-3.208-8.077h6.763a20.87 20.87 0 001.092 6.372 24.596 24.596 0 00-4.676 1.794l.029-.09zm8.154 4.837c-2.99-.61-5.696-2.083-7.729-4.21a24.878 24.878 0 014.415-1.633 21.916 21.916 0 003.276 5.843h.038zm2.773.314a13.91 13.91 0 01-1.739-.135 21.354 21.354 0 01-3.555-6.3 24.495 24.495 0 015.362-.646l-.068 7.081zm2.483-.135c-.576.082-1.157.127-1.739.135v-7.108c1.809.017 3.609.233 5.362.646a21.191 21.191 0 01-3.623 6.202v.125zm8.84-4.505c-2.036 2.123-4.74 3.596-7.729 4.21a21.915 21.915 0 003.266-5.843 25.28 25.28 0 014.463 1.633zm3.691-8.66c-.075 2.96-1.199 5.815-3.198 8.122a25.073 25.073 0 00-4.676-1.795 21.474 21.474 0 001.092-6.372l6.782.045zm-3.198-8.822c1.989 2.295 3.112 5.132 3.198 8.077h-6.763a21.474 21.474 0 00-1.092-6.372 25.11 25.11 0 004.676-1.75l-.019.045zm-8.164-4.793c2.987.618 5.69 2.09 7.729 4.21a25.25 25.25 0 01-4.425 1.633 21.915 21.915 0 00-3.265-5.843h-.039zm-2.782-.323c.582.016 1.163.064 1.739.144a21.191 21.191 0 013.623 6.201 26.082 26.082 0 01-5.362.656v-7zm-2.541.162c.576-.08 1.156-.128 1.739-.144v7a26.246 26.246 0 01-5.362-.655 21.412 21.412 0 013.623-6.201zm-8.763 4.389c2.035-2.124 4.74-3.597 7.729-4.21a21.915 21.915 0 00-3.275 5.843 24.867 24.867 0 01-4.416-1.634h-.038zm-3.662 8.66c.089-2.946 1.215-5.784 3.208-8.077a24.63 24.63 0 004.676 1.75 20.873 20.873 0 00-1.092 6.372l-6.792-.045zM5.777 49.71c-.39.192-.825.29-1.266.286-.41.02-.82-.04-1.206-.172a3.079 3.079 0 01-1.035-.6 2.834 2.834 0 01-.666-.921 2.662 2.662 0 010-2.177c.154-.345.38-.658.666-.922a3.177 3.177 0 012.135-.763c.474.009.942.11 1.372.296v1.418a1.836 1.836 0 00-.608-.413 1.955 1.955 0 00-.735-.152 1.737 1.737 0 00-.63.097c-.2.071-.383.178-.54.316a1.68 1.68 0 00-.54 1.23c-.008.213.031.427.116.626.084.2.212.38.375.532.163.152.358.27.573.349.215.078.444.115.675.108.248-.002.492-.052.718-.146.227-.095.43-.231.596-.402v1.41zM10.143 45.6H8.23v1.032h1.826v1.032H8.23v1.176h1.913v1.041H6.916v-5.313h3.227V45.6zM13.322 44.567c.54-.034 1.073.12 1.497.431.19.164.34.364.436.588.097.223.14.464.125.704.012.23-.025.459-.11.675a1.706 1.706 0 01-.383.582 1.97 1.97 0 01-.677.374c-.251.08-.517.112-.782.093h-.821v1.866h-1.304v-5.313h2.019zm-.715 2.441h.473c.254.024.508-.047.706-.197a.716.716 0 00.17-.244.672.672 0 00.052-.286.615.615 0 00-.05-.278.658.658 0 00-.172-.233.992.992 0 00-.345-.174 1.036 1.036 0 00-.39-.033h-.444v1.445zM18.037 44.567a2.24 2.24 0 011.458.404c.139.133.246.29.318.464.071.172.105.356.098.541.007.237-.06.47-.193.673-.11.175-.275.313-.474.395.294.043.567.169.783.36.248.24.383.563.377.897.01.199-.026.397-.104.583a1.415 1.415 0 01-.35.493c-.422.325-.961.488-1.508.458h-2.154v-5.268h1.748zm-.445 2.154h.213c.236.013.472-.04.676-.152a.564.564 0 00.177-.208c.04-.08.06-.17.055-.26a.523.523 0 00-.055-.248.565.565 0 00-.167-.2 1.192 1.192 0 00-.686-.134h-.213v1.202zm0 2.199h.319c.34.036.681-.04.966-.216a.557.557 0 00.15-.2.52.52 0 00.043-.24.529.529 0 00-.042-.233.564.564 0 00-.141-.197 1.518 1.518 0 00-.966-.207h-.368l.04 1.293zM22.79 44.567v3.473l2.647-3.536h1.17v5.376h-1.315v-3.482l-2.657 3.545h-1.169v-5.376h1.324zM32.075 49.71c-.386.192-.818.29-1.256.287a3.287 3.287 0 01-1.21-.174 3.119 3.119 0 01-1.041-.598 2.762 2.762 0 01-.888-2.01c0-.753.319-1.475.888-2.01.58-.5 1.344-.774 2.135-.764.474.008.942.11 1.372.297v1.418a1.794 1.794 0 00-.602-.415 1.913 1.913 0 00-.732-.15 1.725 1.725 0 00-.629.096c-.2.071-.384.178-.54.316-.174.161-.311.353-.404.564a1.6 1.6 0 00-.137.666c-.008.214.032.427.116.627.085.199.213.38.376.532.163.151.358.27.573.348.214.079.444.115.674.108.247-.002.49-.051.715-.146a1.77 1.77 0 00.59-.401v1.409zM34.538 46.587h2.28v-2.019h1.324v5.313h-1.324V47.62h-2.28v2.261h-1.323v-5.313h1.323v2.02zM42.837 48.876h-2.164l-.434 1.005h-1.372l2.309-5.313h1.207l2.261 5.313h-1.381l-.426-1.005zm-.357-.942l-.705-1.795-.715 1.795h1.42zM49.32 49.88h-1.362v-1.938h-.174l-1.362 1.938h-1.517l1.652-2.082a1.593 1.593 0 01-.812-.377 1.496 1.496 0 01-.38-.538 1.403 1.403 0 01-.103-.638 1.487 1.487 0 01.104-.627c.08-.2.202-.384.36-.54.212-.181.462-.32.735-.409.273-.088.562-.122.85-.102h1.932l.077 5.313zm-1.314-4.308h-.309a1.33 1.33 0 00-.783.189.728.728 0 00-.174.238.684.684 0 00.174.803c.237.153.525.223.812.197h.31l-.03-1.427zM56.102 46.785l1.952-2.217h1.614l-2.32 2.513 2.503 2.8h-1.7l-2.049-2.36v2.36H54.78v-5.313h1.323v2.217zM65.32 45.213c.285.262.512.575.664.92a2.6 2.6 0 01.224 1.09c.005.371-.072.739-.224 1.081a2.736 2.736 0 01-.665.912c-.295.26-.642.462-1.022.596-.38.134-.784.197-1.19.184a3.269 3.269 0 01-2.194-.78 2.694 2.694 0 01-.664-.902 2.525 2.525 0 01-.224-1.073c.01-.753.328-1.474.889-2.019a3.536 3.536 0 012.226-.777c.82 0 1.611.276 2.227.777l-.048-.009zm-3.43.826a1.642 1.642 0 00-.383.553 1.547 1.547 0 00-.12.65c-.016.224.02.448.105.659a1.58 1.58 0 00.952.898c.211.076.437.11.663.102.233.01.466-.027.684-.106a1.72 1.72 0 00.581-.351 1.55 1.55 0 00.388-.542c.087-.205.126-.424.115-.643a1.478 1.478 0 00-.112-.64 1.572 1.572 0 00-.378-.543 1.716 1.716 0 00-.582-.358 1.817 1.817 0 00-.687-.11 1.854 1.854 0 00-1.256.458M67.01 49.881l.918-5.313h1.102l1.42 3.177 1.43-3.177h1.092l.917 5.313h-1.313l-.455-3.177-1.44 3.177h-.463l-1.43-3.177-.454 3.177H67.01zM79.773 44.568v5.313h-1.324v-4.28h-2.164v4.28h-1.324v-5.313h4.812zM84.478 48.876h-2.164l-.445 1.005h-1.362l2.3-5.313h1.207l2.261 5.313h-1.372l-.425-1.005zm-.377-.942l-.705-1.795-.705 1.795h1.41zM88.323 46.587h2.28v-2.019h1.324v5.313h-1.324V47.62h-2.28v2.261H87v-5.313h1.323v2.02zM94.584 44.567v3.473l2.647-3.536H98.4v5.376h-1.324v-3.482l-2.647 3.545H93.26v-5.376h1.324zM103.646 49.88h-1.324v-1.938h-.173l-1.343 1.938h-1.527l1.643-2.082a1.595 1.595 0 01-.812-.377 1.496 1.496 0 01-.38-.538 1.401 1.401 0 01-.103-.638c-.017-.43.15-.85.464-1.166.212-.182.462-.322.734-.41.273-.088.562-.122.85-.102h1.932l.039 5.313zm-1.324-4.308h-.309a1.338 1.338 0 00-.782.189.682.682 0 00-.184.24.645.645 0 00-.058.29.609.609 0 00.051.278.658.658 0 00.171.233c.234.153.518.223.802.197h.309v-1.427z"/></svg><svg fill="none" viewBox="0 0 35 30" id="next" xmlns="http://www.w3.org/2000/svg"><path d="M32.255 15H.203m18.834 12.724l12.664-12.665L18.918 2.276" stroke="#fff" stroke-width="4"/></svg><svg fill="none" viewBox="0 0 35 30" id="prev" xmlns="http://www.w3.org/2000/svg"><path d="M2.645 15h32.052M15.863 2.277L3.199 14.941l12.783 12.783" stroke="#fff" stroke-width="4"/></svg><svg fill="none" viewBox="0 0 66 41" id="second-ship" xmlns="http://www.w3.org/2000/svg"><path d="M45.048 30.992a4.46 4.46 0 018.919 0m-38.452.304V19.568h8.59v11.728m.076-7.844l16.732 1.569v6.125M24.031 19.568h9.412v4.631m-.095-4.628l2.08-6.836H22.046l2.08 6.836m4.61-6.86V0m-2.75 2.72h5.5m-5.5 3.635h5.501M12.212 40h41.935a10 10 0 008.799-5.247l2.084-3.859H1.518l1.71 3.498A10 10 0 0012.212 40z"/></svg><svg fill="none" viewBox="0 0 41 23" id="ship" xmlns="http://www.w3.org/2000/svg"><path fill-rule="evenodd" clip-rule="evenodd" d="M7.677 22.8h26.41a6.298 6.298 0 005.542-3.305l1.312-2.43h-40l1.078 2.203A6.298 6.298 0 007.677 22.8zM5.64 21.209a1.276 1.276 0 100-2.553 1.276 1.276 0 000 2.553zm3.306 0a1.276 1.276 0 100-2.553 1.276 1.276 0 000 2.553zm4.58-1.276a1.276 1.276 0 11-2.552 0 1.276 1.276 0 012.553 0zm16.107 1.276a1.276 1.276 0 100-2.553 1.276 1.276 0 000 2.553zm4.581-1.276a1.276 1.276 0 11-2.552 0 1.276 1.276 0 012.552 0zm2.03 1.276a1.276 1.276 0 100-2.553 1.276 1.276 0 000 2.553z" fill="#fff"/><path d="M3.941 10.3v7h16v-3.5l-5-.5v-3h-11zM32.941 13.1a4 4 0 00-4 4h8a4 4 0 00-4-4zM15.94 6.3H8.041l.9 4h6l1-4z" fill="#fff"/><path d="M12.14 6.3V.5M10.643 3.1h3" stroke="#fff"/></svg><svg fill="none" viewBox="0 0 41 23" id="ship2" xmlns="http://www.w3.org/2000/svg"><path fill-rule="evenodd" clip-rule="evenodd" d="M6.805 22.3h26.412a6.298 6.298 0 005.54-3.305l1.313-2.43h-40l1.078 2.203A6.298 6.298 0 006.805 22.3zM4.77 20.709a1.276 1.276 0 100-2.553 1.276 1.276 0 000 2.553zm3.306 0a1.276 1.276 0 100-2.553 1.276 1.276 0 000 2.553zm4.58-1.276a1.276 1.276 0 11-2.552 0 1.276 1.276 0 012.553 0zm16.107 1.276a1.276 1.276 0 100-2.553 1.276 1.276 0 000 2.553zm4.581-1.276a1.276 1.276 0 11-2.552 0 1.276 1.276 0 012.552 0zm2.03 1.276a1.276 1.276 0 100-2.553 1.276 1.276 0 000 2.553z" fill="#004687"/><path d="M3.07 9.8v7h16v-3.5l-5-.5v-3h-11zM32.07 12.6a4 4 0 00-4 4h8a4 4 0 00-4-4zM15.07 5.8h-7.9l.9 4h6l1-4z" fill="#004687"/><path d="M11.27 5.8V0M9.771 2.6h3" stroke="#004687"/></svg><svg fill="none" viewBox="0 0 11 20" id="soc1" xmlns="http://www.w3.org/2000/svg"><path d="M6.737 19.94v-9.07h2.775l.435-3.543h-3.21V5.045c0-1.021.272-1.742 1.578-1.742h1.687V.12C9.73.06 8.696 0 7.499 0 5.051 0 3.364 1.682 3.364 4.685v2.642H.59v3.544h2.774V20h3.373v-.06z" fill="#fff"/></svg><svg fill="none" viewBox="0 0 21 21" id="soc2" xmlns="http://www.w3.org/2000/svg"><path d="M10.264 2.77c2.666 0 2.983.008 4.041.058 2.709.125 3.975 1.408 4.1 4.1.05 1.058.059 1.375.059 4.041 0 2.667-.009 2.984-.059 4.042-.125 2.692-1.383 3.975-4.1 4.1-1.058.05-1.366.058-4.041.058-2.667 0-2.984-.008-4.042-.058-2.717-.125-3.975-1.417-4.1-4.1-.05-1.058-.058-1.367-.058-4.042 0-2.666.008-2.983.058-4.041.125-2.692 1.392-3.975 4.1-4.1 1.058-.042 1.375-.059 4.042-.059zm0-1.8c-2.717 0-3.059.008-4.125.058C2.514 1.194.489 3.21.322 6.844.272 7.911.264 8.253.264 10.97c0 2.717.008 3.059.058 4.125.167 3.634 2.183 5.65 5.817 5.817 1.066.05 1.408.058 4.125.058 2.716 0 3.058-.008 4.125-.058 3.625-.167 5.65-2.183 5.816-5.817.05-1.066.059-1.408.059-4.125 0-2.716-.009-3.058-.059-4.125-.166-3.625-2.183-5.65-5.816-5.816-1.067-.05-1.409-.059-4.125-.059zm0 4.866a5.136 5.136 0 00-5.134 5.133c0 2.834 2.3 5.134 5.134 5.134 2.833 0 5.133-2.3 5.133-5.134 0-2.833-2.3-5.133-5.133-5.133zm0 8.467a3.332 3.332 0 110-6.667 3.332 3.332 0 110 6.667zm5.341-9.875a1.2 1.2 0 100 2.4 1.2 1.2 0 000-2.4z" fill="#fff"/></svg><svg fill="none" viewBox="0 0 25 16" id="soc3" xmlns="http://www.w3.org/2000/svg"><path d="M13.47 15.077c.617 0 .87-.415.86-.931-.03-1.944.719-2.986 2.085-1.62 1.508 1.508 1.822 2.55 3.644 2.55h3.239c.82 0 1.143-.263 1.143-.677 0-.87-1.437-2.42-2.651-3.543-1.711-1.59-1.782-1.62-.314-3.532 1.812-2.359 4.2-5.395 2.095-5.395h-4.029c-.779 0-.84.435-1.113 1.093-1.012 2.378-2.925 5.455-3.644 4.98-.769-.486-.425-2.43-.364-5.324.02-.76.01-1.286-1.154-1.56a8.457 8.457 0 00-1.832-.201c-2.298 0-3.887.961-2.986 1.133 1.59.294 1.437 3.735 1.063 5.223-.648 2.591-3.077-2.045-4.08-4.352-.242-.557-.323-.992-1.193-.992H.949c-.506 0-.8.162-.8.526 0 .607 2.996 6.802 5.86 9.889 2.784 3.006 5.547 2.733 7.46 2.733z" fill="#fff"/></svg><svg fill="none" viewBox="0 0 18 16" id="soc4" xmlns="http://www.w3.org/2000/svg"><path d="M17.867 2.244c-.655.29-1.31.523-2.02.582.71-.466 1.31-1.221 1.53-2.093-.71.407-1.42.755-2.24.93A3.366 3.366 0 0012.573.5c-1.966 0-3.549 1.686-3.549 3.78 0 .29.055.58.11.871-2.949-.174-5.57-1.628-7.316-3.953a3.841 3.841 0 00-.492 1.918c0 1.28.6 2.442 1.583 3.14a2.85 2.85 0 01-1.583-.465v.058c0 1.802 1.201 3.372 2.84 3.72-.274.059-.601.117-.929.117-.218 0-.437 0-.655-.058.437 1.511 1.747 2.558 3.33 2.616-1.2.989-2.73 1.628-4.367 1.628-.273 0-.546 0-.82-.058C2.309 14.86 4.165 15.5 6.13 15.5c6.496 0 10.045-5.756 10.045-10.698v-.465c.6-.64 1.201-1.337 1.692-2.093z" fill="#fff"/></svg><svg viewBox="0 0 24 24" id="telegram" xmlns="http://www.w3.org/2000/svg"><circle cx="12" cy="12" fill="#039be5" r="12"/><path d="M5.491 11.74l11.57-4.461c.537-.194 1.006.131.832.943l.001-.001-1.97 9.281c-.146.658-.537.818-1.084.508l-3-2.211-1.447 1.394c-.16.16-.295.295-.605.295l.213-3.053 5.56-5.023c.242-.213-.054-.333-.373-.121l-6.871 4.326-2.962-.924c-.643-.204-.657-.643.136-.953z" fill="#fff"/></svg><svg fill="none" viewBox="0 0 30 36" id="up" xmlns="http://www.w3.org/2000/svg"><path d="M14.963 2.974v32.052M27.688 16.192L15.023 3.53 2.24 16.312" stroke="#004687" stroke-width="4"/></svg><svg viewBox="-1 0 512 512" id="whatsapp" xmlns="http://www.w3.org/2000/svg"><path d="M10.895 512A10.895 10.895 0 01.387 498.23l33.285-121.546C12.949 339.21 2.023 296.82 2.039 253.789 2.098 113.848 115.98 0 255.91 0c67.871.027 131.645 26.465 179.578 74.434 47.926 47.972 74.309 111.742 74.29 179.558-.063 139.945-113.946 253.801-253.868 253.801h-.11c-40.87-.016-81.39-9.977-117.468-28.844L13.656 511.645c-.914.238-1.843.355-2.761.355zm0 0" fill="#e5e5e5"/><path d="M10.895 501.105l34.468-125.87c-21.261-36.84-32.445-78.63-32.43-121.442C12.989 119.859 121.98 10.895 255.91 10.895c64.992.027 125.996 25.324 171.871 71.238 45.871 45.914 71.125 106.945 71.102 171.855-.059 133.93-109.067 242.91-242.973 242.91-.008 0 .004 0 0 0h-.105c-40.664-.015-80.618-10.214-116.106-29.57zm134.77-77.75l7.378 4.372c31 18.398 66.543 28.128 102.789 28.148h.078c111.305 0 201.899-90.578 201.945-201.902.02-53.95-20.964-104.68-59.093-142.84-38.133-38.16-88.832-59.188-142.778-59.211C144.59 51.922 54 142.488 53.957 253.809c-.016 38.148 10.656 75.296 30.875 107.445l4.805 7.64-20.407 74.5zm0 0" fill="#fff"/><path d="M19.344 492.625l33.277-121.52c-20.531-35.562-31.324-75.91-31.312-117.234.05-129.297 105.273-234.488 234.558-234.488 62.75.027 121.645 24.449 165.922 68.773 44.29 44.324 68.664 103.242 68.64 165.899-.054 129.3-105.28 234.504-234.55 234.504-.012 0 .004 0 0 0h-.106c-39.253-.016-77.828-9.868-112.085-28.54zm0 0" fill="#64b161"/><g fill="#fff"><path d="M10.895 501.105l34.468-125.87c-21.261-36.84-32.445-78.63-32.43-121.442C12.989 119.859 121.98 10.895 255.91 10.895c64.992.027 125.996 25.324 171.871 71.238 45.871 45.914 71.125 106.945 71.102 171.855-.059 133.93-109.067 242.91-242.973 242.91-.008 0 .004 0 0 0h-.105c-40.664-.015-80.618-10.214-116.106-29.57zm134.77-77.75l7.378 4.372c31 18.398 66.543 28.128 102.789 28.148h.078c111.305 0 201.899-90.578 201.945-201.902.02-53.95-20.964-104.68-59.093-142.84-38.133-38.16-88.832-59.188-142.778-59.211C144.59 51.922 54 142.488 53.957 253.809c-.016 38.148 10.656 75.296 30.875 107.445l4.805 7.64-20.407 74.5zm0 0"/><path d="M195.184 152.246c-4.547-10.11-9.336-10.312-13.664-10.488-3.54-.153-7.59-.145-11.633-.145-4.047 0-10.625 1.524-16.188 7.598-5.566 6.074-21.254 20.762-21.254 50.633 0 29.875 21.758 58.738 24.793 62.793 3.035 4.05 42 67.308 103.707 91.644 51.285 20.227 61.72 16.203 72.852 15.192 11.133-1.012 35.918-14.688 40.976-28.864 5.063-14.175 5.063-26.324 3.543-28.867-1.52-2.527-5.566-4.047-11.636-7.082-6.07-3.035-35.918-17.726-41.485-19.75-5.566-2.027-9.613-3.035-13.66 3.043-4.05 6.07-15.676 19.742-19.219 23.79-3.543 4.058-7.086 4.566-13.156 1.527-6.07-3.043-25.625-9.45-48.82-30.133-18.047-16.09-30.235-35.965-33.777-42.043-3.54-6.07-.06-9.07 2.667-12.387 4.91-5.973 13.149-16.71 15.172-20.758 2.024-4.054 1.012-7.597-.504-10.637-1.52-3.035-13.32-33.058-18.714-45.066zm0 0" fill-rule="evenodd"/></g></svg></svg>