<svg width="41" height="30" fill="none" xmlns="http://www.w3.org/2000/svg"><path d="M20.206 28.987l-.308.393.135.107h.173v-.5zM37.74 29v.5h.007l-.007-.5zm-.04-3.702l.005.5h.002l-.007-.5zm-10.117.094l-.353.353.148.149.21-.002-.005-.5zm-10.13-10.13l.354-.354-.146-.146h-.208v.5zm-12.468 0v-.5h-.5v.5h.5zm0 7.016h-.5v.5h.5v-.5zm6.682 0l.309-.393-.136-.107h-.173v.5zm13.07 2.927l.35.357-.35-.357zm-2.62-.026l.357-.35v-.001l-.357.35zm-1.91 4.308l17.533.013v-1l-17.533-.013v1zm17.54.013a2.36 2.36 0 002.324-2.378l-1 .014a1.36 1.36 0 01-1.337 1.364l.013 1zm2.324-2.378a2.36 2.36 0 00-2.377-2.324l.013 1a1.36 1.36 0 011.364 1.338l1-.014zm-2.375-2.324l-10.117.094.01 1 10.116-.094-.01-1zm-9.759.24l-10.13-10.13-.707.707 10.13 10.13.707-.707zM17.453 14.762H4.985v1h12.468v-1zm-12.968.5v7.016h1v-7.016h-1zm.5 7.516h6.682v-1H4.985v1zm6.373-.107l8.54 6.709.617-.787-8.54-6.708-.617.786zm13.049.265a1.355 1.355 0 01-.02 1.912l.7.714c.934-.917.934-2.41.034-3.326l-.714.7zm-.02 1.912a1.355 1.355 0 01-1.913-.02l-.713.7a2.355 2.355 0 003.326.034l-.7-.714zm-1.913-.02l-4.704-4.784-.713.7 4.704 4.785.713-.701z"/><path d="M.535 14.321H4.8v8.941H.535zm37.81-2.13c-.411 3.714-3.487 6.6-7.221 6.6s-6.81-2.886-7.222-6.6m7.268-7.55v14.15M27.85 8.313h6.64m-11.722 6.321l.945-3.009 2.416 2.127m13.443.882l-.946-3.009-2.416 2.127M32.975 2.851c0 1.022-.808 1.85-1.805 1.85-.998 0-1.806-.828-1.806-1.85 0-1.022.808-1.851 1.806-1.851.997 0 1.805.829 1.805 1.85z"/></svg>