<svg width="40" height="16" viewBox="0 0 40 16" fill="none" xmlns="http://www.w3.org/2000/svg">
<path d="M5.11523 1.54199H17.1544L27.3078 11.8126H37.147C38.1216 11.8126 38.9117 12.6118 38.9117 13.5977C38.9117 14.5835 38.1216 15.3828 37.147 15.3828H19.9587L11.5459 8.68248H5.11523M20.0681 4.50401L24.541 9.02851C25.2118 9.70697 25.2118 10.807 24.541 11.4854C23.8703 12.1639 22.7828 12.1639 22.1121 11.4854L17.3371 6.65484M0.912109 0.710449H4.95738V9.62658H0.912109V0.710449ZM27.2676 3.04199C27.2676 3.87042 26.596 4.54199 25.7676 4.54199C24.9392 4.54199 24.2676 3.87042 24.2676 3.04199C24.2676 2.21357 24.9392 1.54199 25.7676 1.54199C26.596 1.54199 27.2676 2.21357 27.2676 3.04199ZM33.0898 3.04199C33.0898 3.87042 32.4183 4.54199 31.5898 4.54199C30.7614 4.54199 30.0898 3.87042 30.0898 3.04199C30.0898 2.21357 30.7614 1.54199 31.5898 1.54199C32.4183 1.54199 33.0898 2.21357 33.0898 3.04199ZM38.9121 3.04199C38.9121 3.87042 38.2405 4.54199 37.4121 4.54199C36.5837 4.54199 35.9121 3.87042 35.9121 3.04199C35.9121 2.21357 36.5837 1.54199 37.4121 1.54199C38.2405 1.54199 38.9121 2.21357 38.9121 3.04199Z" stroke="white"/>
</svg>
