<svg xmlns="http://www.w3.org/2000/svg"><path d="M1.013 2.333a81.408 81.408 0 0111.488-.727c7.14 0 11.767 1.193 15.4 3.724 3.864 2.692 6.367 7.01 6.367 13.175 0 6.686-2.628 11.299-6.251 14.143-3.961 3.06-9.99 4.488-17.39 4.488a79.06 79.06 0 01-9.662-.512l.048-34.291zm8.531 28.503a16.33 16.33 0 002.957.161c7.729.045 12.714-3.895 12.714-12.241.067-7.252-4.512-11.093-11.816-11.093a19.162 19.162 0 00-3.865.315l.01 22.858zm35.1-4.19c.27 3.266 3.73 4.81 7.73 4.81 2.552.032 5.093-.32 7.526-1.041l1.12 5.385a28.912 28.912 0 01-9.874 1.606c-9.265 0-14.56-5.026-14.56-12.968-.038-6.489 4.252-13.552 13.7-13.552 8.812 0 12.164 6.372 12.164 12.645a17.102 17.102 0 01-.28 3.115H44.644zm9.98-5.385c0-1.93-.888-5.134-4.83-5.134-3.565 0-5.024 3.007-5.246 5.134h10.076zM73.619 0h-8.483v36.795h8.483V0zm17.4 23.837h-6.667a20.346 20.346 0 011.073-6.193c1.829.433 3.706.665 5.594.692v5.5zm0 6.201a25.903 25.903 0 00-5.594.691 20.346 20.346 0 01-1.073-6.192h6.667v5.501zm.744-5.501h6.666a20.637 20.637 0 01-1.063 6.192 26.08 26.08 0 00-5.603-.69v-5.502zm0-6.201a26.08 26.08 0 005.603-.692 20.638 20.638 0 011.063 6.193h-6.666v-5.502zM80.024 32.694c-1.992-2.294-3.119-5.131-3.208-8.077h6.763a20.87 20.87 0 001.092 6.372 24.596 24.596 0 00-4.676 1.794l.029-.09zm8.154 4.837c-2.99-.61-5.696-2.083-7.729-4.21a24.878 24.878 0 014.415-1.633 21.916 21.916 0 003.276 5.843h.038zm2.773.314a13.91 13.91 0 01-1.739-.135 21.354 21.354 0 01-3.555-6.3 24.495 24.495 0 015.362-.646l-.068 7.081zm2.483-.135c-.576.082-1.157.127-1.739.135v-7.108a24.39 24.39 0 015.362.646 21.191 21.191 0 01-3.623 6.202v.125zm8.84-4.505c-2.036 2.123-4.74 3.596-7.729 4.21a21.915 21.915 0 003.266-5.843 25.28 25.28 0 014.463 1.633zm3.691-8.66c-.075 2.96-1.199 5.815-3.198 8.122a25.073 25.073 0 00-4.676-1.795 21.474 21.474 0 001.092-6.372l6.782.045zm-3.198-8.822c1.989 2.295 3.112 5.132 3.198 8.077h-6.763a21.474 21.474 0 00-1.092-6.372 25.11 25.11 0 004.676-1.75l-.019.045zm-8.164-4.793c2.987.618 5.69 2.09 7.729 4.21a25.25 25.25 0 01-4.425 1.633 21.915 21.915 0 00-3.265-5.843h-.039zm-2.782-.323c.582.016 1.163.064 1.739.144a21.191 21.191 0 013.623 6.201 26.082 26.082 0 01-5.362.656v-7zm-2.541.162c.576-.08 1.156-.128 1.739-.144v7a26.246 26.246 0 01-5.362-.655 21.412 21.412 0 013.623-6.201zm-8.763 4.389c2.035-2.124 4.74-3.597 7.729-4.21a21.915 21.915 0 00-3.275 5.843 24.867 24.867 0 01-4.416-1.634h-.038zm-3.662 8.66c.089-2.946 1.215-5.784 3.208-8.077a24.63 24.63 0 004.676 1.75 20.873 20.873 0 00-1.092 6.372l-6.792-.045zM5.777 49.71c-.39.192-.825.29-1.266.286-.41.02-.82-.04-1.206-.172a3.079 3.079 0 01-1.035-.6 2.834 2.834 0 01-.666-.921 2.662 2.662 0 010-2.177c.154-.345.38-.658.666-.922a3.177 3.177 0 012.135-.763c.474.009.942.11 1.372.296v1.418a1.836 1.836 0 00-.608-.413 1.955 1.955 0 00-.735-.152 1.737 1.737 0 00-.63.097c-.2.071-.383.178-.54.316a1.68 1.68 0 00-.54 1.23c-.008.213.031.427.116.626.084.2.212.38.375.532.163.152.358.27.573.349.215.078.444.115.675.108a1.91 1.91 0 00.718-.146c.227-.095.43-.231.596-.402v1.41zm4.366-4.11H8.23v1.032h1.826v1.032H8.23v1.176h1.913v1.041H6.916v-5.313h3.227V45.6zm3.179-1.033c.54-.034 1.073.12 1.497.431.19.164.34.364.436.588.097.223.14.464.125.704a1.61 1.61 0 01-.11.675 1.706 1.706 0 01-.383.582 1.97 1.97 0 01-.677.374c-.251.08-.517.112-.782.093h-.821v1.866h-1.304v-5.313h2.019zm-.715 2.441h.473c.254.024.508-.047.706-.197a.716.716 0 00.17-.244.672.672 0 00.052-.286.615.615 0 00-.05-.278.658.658 0 00-.172-.233.992.992 0 00-.345-.174 1.036 1.036 0 00-.39-.033h-.444v1.445zm5.43-2.441a2.24 2.24 0 011.458.404c.139.133.246.29.318.464.071.172.105.356.098.541.007.237-.06.47-.193.673-.11.175-.275.313-.474.395.294.043.567.169.783.36.248.24.383.563.377.897.01.199-.026.397-.104.583a1.415 1.415 0 01-.35.493 2.272 2.272 0 01-1.508.458h-2.154v-5.268h1.748zm-.445 2.154h.213c.236.013.472-.04.676-.152a.564.564 0 00.177-.208.52.52 0 00.055-.26.523.523 0 00-.055-.248.565.565 0 00-.167-.2 1.192 1.192 0 00-.686-.134h-.213v1.202zm0 2.199h.319c.34.036.681-.04.966-.216a.557.557 0 00.15-.2.52.52 0 00.043-.24.529.529 0 00-.042-.233.564.564 0 00-.141-.197 1.518 1.518 0 00-.966-.207h-.368l.04 1.293zm5.198-4.353v3.473l2.647-3.536h1.17v5.376h-1.315v-3.482l-2.657 3.545h-1.169v-5.376h1.324zm9.285 5.143c-.386.192-.818.29-1.256.287a3.287 3.287 0 01-1.21-.174 3.119 3.119 0 01-1.041-.598 2.762 2.762 0 01-.888-2.01c0-.753.319-1.475.888-2.01.58-.5 1.344-.774 2.135-.764a3.6 3.6 0 011.372.297v1.418a1.794 1.794 0 00-.602-.415 1.913 1.913 0 00-.732-.15 1.725 1.725 0 00-.629.096c-.2.071-.384.178-.54.316a1.707 1.707 0 00-.404.564 1.6 1.6 0 00-.137.666c-.008.214.032.427.116.627.085.199.213.38.376.532.163.151.358.27.573.348.214.079.444.115.674.108.247-.002.49-.051.715-.146a1.77 1.77 0 00.59-.401v1.409zm2.463-3.123h2.28v-2.019h1.324v5.313h-1.324V47.62h-2.28v2.261h-1.323v-5.313h1.323v2.02zm8.299 2.289h-2.164l-.434 1.005h-1.372l2.309-5.313h1.207l2.261 5.313h-1.381l-.426-1.005zm-.357-.942l-.705-1.795-.715 1.795h1.42zm6.84 1.946h-1.362v-1.938h-.174l-1.362 1.938h-1.517l1.652-2.082a1.593 1.593 0 01-.812-.377 1.496 1.496 0 01-.38-.538 1.403 1.403 0 01-.103-.638 1.487 1.487 0 01.104-.627c.08-.2.202-.384.36-.54.212-.181.462-.32.735-.409.273-.088.562-.122.85-.102h1.932l.077 5.313zm-1.314-4.308h-.309a1.33 1.33 0 00-.783.189.728.728 0 00-.174.238.684.684 0 00.174.803c.237.153.525.223.812.197h.31l-.03-1.427zm8.096 1.213l1.952-2.217h1.614l-2.32 2.513 2.503 2.8h-1.7l-2.049-2.36v2.36H54.78v-5.313h1.323v2.217zm9.218-1.572c.285.262.512.575.664.92a2.6 2.6 0 01.224 1.09c.005.371-.072.739-.224 1.081a2.736 2.736 0 01-.665.912c-.295.26-.642.462-1.022.596-.38.134-.784.197-1.19.184a3.269 3.269 0 01-2.194-.78 2.694 2.694 0 01-.664-.902 2.525 2.525 0 01-.224-1.073c.01-.753.328-1.474.889-2.019a3.536 3.536 0 012.226-.777c.82 0 1.611.276 2.227.777l-.048-.009zm-3.43.826a1.642 1.642 0 00-.383.553 1.547 1.547 0 00-.12.65c-.016.224.02.448.105.659a1.58 1.58 0 00.952.898c.211.076.437.11.663.102.233.01.466-.027.684-.106a1.72 1.72 0 00.581-.351 1.55 1.55 0 00.388-.542c.087-.205.126-.424.115-.643a1.478 1.478 0 00-.112-.64 1.572 1.572 0 00-.378-.543 1.716 1.716 0 00-.582-.358 1.817 1.817 0 00-.687-.11 1.854 1.854 0 00-1.256.458m5.15 3.815l.918-5.313h1.102l1.42 3.177 1.43-3.177h1.092l.917 5.313h-1.313l-.455-3.177-1.44 3.177h-.463l-1.43-3.177-.454 3.177H67.01zm12.763-5.313v5.313h-1.324v-4.28h-2.164v4.28h-1.324v-5.313h4.812zm4.705 4.308h-2.164l-.445 1.005h-1.362l2.3-5.313h1.207l2.261 5.313h-1.372l-.425-1.005zm-.377-.942l-.705-1.795-.705 1.795h1.41zm4.222-1.347h2.28v-2.019h1.324v5.313h-1.324V47.62h-2.28v2.261H87v-5.313h1.323v2.02zm6.261-2.02v3.473l2.647-3.536H98.4v5.376h-1.324v-3.482l-2.647 3.545H93.26v-5.376h1.324zm9.062 5.313h-1.324v-1.938h-.173l-1.343 1.938h-1.527l1.643-2.082a1.595 1.595 0 01-.812-.377 1.496 1.496 0 01-.38-.538 1.401 1.401 0 01-.103-.638c-.017-.43.15-.85.464-1.166.212-.182.462-.322.734-.41.273-.088.562-.122.85-.102h1.932l.039 5.313zm-1.324-4.308h-.309a1.338 1.338 0 00-.782.189.682.682 0 00-.184.24.645.645 0 00-.058.29.609.609 0 00.051.278.658.658 0 00.171.233c.234.153.518.223.802.197h.309v-1.427z"/></svg>