<svg width="41" height="23" fill="none" xmlns="http://www.w3.org/2000/svg"><path fill-rule="evenodd" clip-rule="evenodd" d="M6.805 22.3h26.412a6.298 6.298 0 005.54-3.305l1.313-2.43h-40l1.078 2.203A6.298 6.298 0 006.805 22.3zM4.77 20.709a1.276 1.276 0 100-2.553 1.276 1.276 0 000 2.553zm3.306 0a1.276 1.276 0 100-2.553 1.276 1.276 0 000 2.553zm4.58-1.276a1.276 1.276 0 11-2.552 0 1.276 1.276 0 012.553 0zm16.107 1.276a1.276 1.276 0 100-2.553 1.276 1.276 0 000 2.553zm4.581-1.276a1.276 1.276 0 11-2.552 0 1.276 1.276 0 012.552 0zm2.03 1.276a1.276 1.276 0 100-2.553 1.276 1.276 0 000 2.553z" fill="#004687"/><path d="M3.07 9.8v7h16v-3.5l-5-.5v-3h-11zm29 2.8a4 4 0 00-4 4h8a4 4 0 00-4-4zm-17-6.8h-7.9l.9 4h6l1-4z" fill="#004687"/><path d="M11.27 5.8V0M9.771 2.6h3" stroke="#004687"/></svg>