<svg width="43" height="29" viewBox="0 0 43 29" fill="none" xmlns="http://www.w3.org/2000/svg">
<path d="M14.0855 22.3176V26.6427M11.7961 22.3176V27.0268M3.42566 22.3176V27.1904C4.05597 27.5056 4.94142 27.5759 5.57173 27.2607L6.50774 26.7927C7.13805 26.4776 7.87996 26.4776 8.51027 26.7927L9.44629 27.2607C10.0766 27.5759 10.8185 27.5759 11.4488 27.2607L12.3848 26.7927C13.0151 26.4776 13.757 26.4776 14.3874 26.7927L15.3946 27.3044M5.71532 22.3176V27.1685M1.11914 19.6055H16.3246V22.478H1.11914V19.6055Z" />
<path d="M15.3828 27.2956L16.3188 27.7636C16.9491 28.0788 17.691 28.0788 18.3214 27.7636L19.2574 27.2956C19.8877 26.9805 20.6296 26.9805 21.2599 27.2956L22.1959 27.7636C22.8262 28.0788 23.5681 28.0788 24.1984 27.7636L25.1345 27.2956C25.7648 26.9805 26.5067 26.9805 27.137 27.2956L28.073 27.7636C28.7033 28.0788 29.4452 28.0788 30.0755 27.7636L31.0115 27.2956C31.6419 26.9805 32.3838 26.9805 33.0141 27.2956L33.9522 27.7636C34.5825 28.0788 35.3244 28.0788 35.9547 27.7636L36.8907 27.2956C37.521 26.9805 38.2629 26.9805 38.8932 27.2956L39.8292 27.7636C40.4596 28.0788 41.2015 28.0788 41.8318 27.7636L42.7678 27.2956" />
<path d="M24.0225 5.12503V1.70833H30.0778M36.133 5.12503V1.70833H30.0778M30.0778 1.70833V0" />
<path d="M21.7812 27.5459L18.9473 13.6334L30.1288 9.5112L41.2073 13.6334L38.4763 27.5459" />
<path d="M30.0781 5.27689V27.8034" />
<path d="M20.9365 12.9074V5.20093H39.311V12.9074" />
<path d="M25.3779 5.16296V11.1991" />
<path d="M34.793 5.16296V11.1991" />
<path d="M20.9365 8.16208H39.2727" />
</svg>
