<svg width="41" height="30" viewBox="0 0 41 30" fill="none" xmlns="http://www.w3.org/2000/svg">
<path d="M20.2065 28.9866L19.8976 29.3798L20.0334 29.4865L20.2061 29.4866L20.2065 28.9866ZM37.7402 29L37.7399 29.5L37.7468 29.5L37.7402 29ZM37.7001 25.2981L37.7048 25.7981L37.7067 25.7981L37.7001 25.2981ZM27.5835 25.3917L27.2299 25.7452L27.3783 25.8936L27.5881 25.8917L27.5835 25.3917ZM17.4535 15.2617L17.807 14.9081L17.6606 14.7617L17.4535 14.7617L17.4535 15.2617ZM4.98472 15.2617L4.98472 14.7617L4.48472 14.7617L4.48472 15.2617L4.98472 15.2617ZM4.98472 22.2778L4.48472 22.2778L4.48472 22.7778L4.98472 22.7778L4.98472 22.2778ZM11.6668 22.2778L11.9757 21.8847L11.8397 21.7778L11.6668 21.7778L11.6668 22.2778ZM24.7369 25.2052L25.0871 25.5621L25.0872 25.562L24.7369 25.2052ZM22.1175 25.1785L22.4743 24.8282L22.474 24.8279L22.1175 25.1785ZM20.2061 29.4866L37.7399 29.5L37.7406 28.5L20.2069 28.4866L20.2061 29.4866ZM37.7468 29.5C39.0356 29.483 40.0881 28.4173 40.0711 27.1224L39.0712 27.1356C39.0809 27.8721 38.4762 28.4903 37.7337 28.5L37.7468 29.5ZM40.0711 27.1224C40.0541 25.8337 38.9884 24.7811 37.6936 24.7982L37.7067 25.7981C38.4433 25.7884 39.0614 26.393 39.0712 27.1356L40.0711 27.1224ZM37.6955 24.7982L27.5789 24.8917L27.5881 25.8917L37.7048 25.7981L37.6955 24.7982ZM27.937 25.0381L17.807 14.9081L17.0999 15.6152L27.2299 25.7452L27.937 25.0381ZM17.4535 14.7617L4.98472 14.7617L4.98472 15.7617L17.4535 15.7617L17.4535 14.7617ZM4.48472 15.2617L4.48472 22.2778L5.48472 22.2778L5.48472 15.2617L4.48472 15.2617ZM4.98472 22.7778L11.6668 22.7778L11.6668 21.7778L4.98472 21.7778L4.98472 22.7778ZM11.3579 22.671L19.8976 29.3798L20.5154 28.5935L11.9757 21.8847L11.3579 22.671ZM24.4068 22.9361C24.9231 23.4622 24.9231 24.3217 24.3866 24.8484L25.0872 25.562C26.0207 24.6454 26.0207 23.1528 25.1205 22.2356L24.4068 22.9361ZM24.3866 24.8484C23.8605 25.3647 23.0011 25.3647 22.4743 24.8282L21.7607 25.5288C22.6773 26.4623 24.1699 26.4623 25.0871 25.5621L24.3866 24.8484ZM22.474 24.8279L17.7699 20.0436L17.0568 20.7447L21.761 25.529L22.474 24.8279Z" />
<rect x="0.535156" y="14.3207" width="4.26545" height="8.9409"/>
<path d="M38.3453 12.1912C37.9337 15.9054 34.8576 18.7911 31.1238 18.7911C27.3901 18.7911 24.314 15.9054 23.9024 12.1912M31.1696 4.64178V18.7911M27.8497 8.31346H34.4897M22.7676 14.6344L23.7131 11.6252L26.1292 13.7522M39.5718 14.6344L38.6262 11.6252L36.2101 13.7522M32.9753 2.85075C32.9753 3.87289 32.1669 4.7015 31.1697 4.7015C30.1725 4.7015 29.3641 3.87289 29.3641 2.85075C29.3641 1.82861 30.1725 1 31.1697 1C32.1669 1 32.9753 1.82861 32.9753 2.85075Z"/>
</svg>
