<svg width="23" height="30" viewBox="0 0 23 30" fill="none" xmlns="http://www.w3.org/2000/svg">
<path d="M19.866 20.4832V27.216M2.87598 27.216V20.4832M19.866 11.7006V18.4335M2.87598 18.4335V11.7006M19.866 3.11395V9.84684M2.87598 9.84684V3.11395" />
<rect x="1.0459" y="1" width="20.651" height="2.11395" rx="1.05698" />
<path d="M12.0855 9.62866H20.64C21.2237 9.62866 21.6969 10.1019 21.6969 10.6856V10.6856C21.6969 11.2694 21.2237 11.7426 20.64 11.7426H13.4197M10.5545 9.62866H2.10288C1.51912 9.62866 1.0459 10.1019 1.0459 10.6856V10.6856C1.0459 11.2694 1.51912 11.7426 2.10288 11.7426H9.24216" />
<path d="M15.2132 18.2573H20.64C21.2237 18.2573 21.6969 18.7305 21.6969 19.3143V19.3143C21.6969 19.8981 21.2237 20.3713 20.64 20.3713H13.2448M7.55802 18.2573H2.10288C1.51912 18.2573 1.0459 18.7305 1.0459 19.3143V19.3143C1.0459 19.8981 1.51912 20.3713 2.10287 20.3713H9.70148" />
<rect x="1.0459" y="26.886" width="20.651" height="2.11395" rx="1.05698" />
<path d="M8.38524 19.454L8.46608 19.5349C10.1071 21.1764 12.7682 21.1767 14.4096 19.5356C15.8072 18.1384 16.0425 15.9562 14.9749 14.2931L11.3032 8.57344L7.79619 14.0839C6.70986 15.7908 6.95472 18.0232 8.38524 19.454Z" />
<path d="M11.4641 19.2304C9.9673 19.2304 8.75391 18.017 8.75391 16.5202" />
</svg>
