<svg width="40" height="30" viewBox="0 0 40 30" fill="none" xmlns="http://www.w3.org/2000/svg">
<path d="M37.54 12.2343C37.1333 15.9474 34.0931 18.8323 30.4031 18.8323C26.713 18.8323 23.6728 15.9474 23.2661 12.2343M30.4483 4.6871V18.8323M27.1672 8.3577H33.7295M22.1445 14.6767L23.079 11.6685L25.4669 13.7948M38.7522 14.6767L37.8177 11.6685L35.4298 13.7948M4.95508 15.2058H16.9942L27.1477 25.4764H36.9868C37.9614 25.4764 38.7515 26.2756 38.7515 27.2615C38.7515 28.2474 37.9614 29.0466 36.9868 29.0466H19.7986L11.3858 22.3463H4.95508M19.908 18.1678L24.3809 22.6923C25.0516 23.3708 25.0516 24.4708 24.3809 25.1493C23.7101 25.8277 22.6226 25.8277 21.9519 25.1492L17.177 20.3187M0.751953 14.3745H4.79722V23.2906H0.751953V14.3745ZM32.2328 2.89659C32.2328 3.91843 31.4339 4.7468 30.4484 4.7468C29.4628 4.7468 28.6639 3.91843 28.6639 2.89659C28.6639 1.87475 29.4628 1.04639 30.4484 1.04639C31.4339 1.04639 32.2328 1.87475 32.2328 2.89659Z" />
</svg>
