<svg width="40" height="23" viewBox="0 0 40 23" fill="none" xmlns="http://www.w3.org/2000/svg">
<path d="M34.3359 0.480469C35.3596 0.480469 35.6608 1.06141 35.6608 1.72443C35.6608 2.55373 34.9816 3.3204 33.8251 3.3204C32.8576 3.3204 32.3955 2.84312 32.4224 2.05593C32.4235 1.39292 32.9904 0.480469 34.3359 0.480469ZM32.0996 13.3995C31.4312 13.3995 30.9409 12.9654 31.4096 11.0552L32.1784 7.66885C32.3112 7.1257 32.3339 6.90866 32.1784 6.90866C31.9776 6.90866 31.1083 7.28444 30.5954 7.65265L30.2617 7.06739C31.8901 5.61287 33.7603 4.76089 34.5627 4.76089C35.2321 4.76089 35.3434 5.60747 35.0086 6.90974L34.1296 10.4699C33.9742 11.0984 34.0411 11.3154 34.1955 11.3154C34.3964 11.3154 35.054 11.0541 35.7008 10.5109L36.0798 11.0541C34.4968 12.7473 32.7691 13.3995 32.0996 13.3995Z" fill="white"/>
<path d="M5.03516 7.77136H17.0743L27.2277 18.0419H37.0669C38.0415 18.0419 38.8316 18.8411 38.8316 19.827C38.8316 20.8129 38.0415 21.6121 37.0669 21.6121H19.8786L11.4658 14.9118H5.03516M19.988 10.7334L24.4609 15.2579C25.1317 15.9363 25.1317 17.0363 24.4609 17.7148C23.7902 18.3933 22.7027 18.3933 22.032 17.7147L17.2571 12.8842M0.832031 6.93994H4.8773V15.8561H0.832031V6.93994Z" stroke="white"/>
</svg>
