<svg xmlns="http://www.w3.org/2000/svg">
<path d="M1.01315 2.33255C4.81686 1.81972 8.65709 1.5767 12.5005 1.60561C19.6403 1.60561 24.2681 2.79922 27.9008 5.33003C31.7653 8.02238 34.2676 12.3391 34.2676 18.5046C34.2676 25.1906 31.6397 29.8035 28.0167 32.6484C24.0556 35.7087 18.0268 37.1357 10.6262 37.1357C7.39717 37.1625 4.16971 36.9916 0.964844 36.6241L1.01315 2.33255ZM9.54415 30.8356C10.5215 30.9793 11.5118 31.0334 12.5005 30.9971C20.2296 31.042 25.2149 27.1022 25.2149 18.7559C25.2825 11.5045 20.7031 7.6634 13.399 7.6634C12.1024 7.63727 10.8065 7.74259 9.53449 7.97751L9.54415 30.8356Z"  />
<path d="M44.6442 26.6456C44.9147 29.9123 48.3735 31.4559 52.3733 31.4559C54.926 31.4875 57.4675 31.136 59.8995 30.4148L61.0203 35.7995C57.8654 36.9017 54.5166 37.4466 51.1463 37.406C41.8811 37.406 36.5866 32.3803 36.5866 24.4378C36.548 17.9493 40.8376 10.8863 50.2865 10.8863C59.0977 10.8863 62.4502 17.2582 62.4502 23.5314C62.4522 24.575 62.3584 25.6168 62.17 26.6456H44.6442ZM54.6244 21.2608C54.6244 19.3313 53.7356 16.1274 49.7937 16.1274C46.2287 16.1274 44.7698 19.1339 44.5476 21.2608H54.6244Z"  />
<path d="M73.6188 0H65.1361V36.7955H73.6188V0Z"  />
<path d="M91.0187 23.8369H84.3523C84.3859 21.7354 84.7471 19.6496 85.4247 17.6444C87.2539 18.077 89.1314 18.309 91.0187 18.3355V23.8369ZM91.0187 30.0382C89.1314 30.0648 87.2539 30.2967 85.4247 30.7293C84.7471 28.7241 84.3859 26.6383 84.3523 24.5369H91.0187V30.0382ZM91.7626 24.5369H98.429C98.3938 26.6375 98.036 28.7227 97.3662 30.7293C95.5336 30.2974 93.653 30.0655 91.7626 30.0382V24.5369ZM91.7626 18.3355C93.653 18.3082 95.5336 18.0763 97.3662 17.6444C98.036 19.6511 98.3938 21.7363 98.429 23.8369H91.7626V18.3355ZM80.024 32.6947C78.0319 30.4011 76.905 27.5635 76.8164 24.6176H83.5794C83.6092 26.7795 83.9769 28.9259 84.6712 30.9895C83.0476 31.4301 81.4799 32.0319 79.995 32.7844L80.024 32.6947ZM88.1782 37.5319C85.1879 36.9225 82.4822 35.449 80.4491 33.3229C81.8585 32.6428 83.3376 32.0957 84.8644 31.6895C85.6407 33.7761 86.7444 35.7448 88.1396 37.5319H88.1782ZM90.951 37.8461C90.3688 37.8376 89.7878 37.7926 89.212 37.7114C87.6643 35.806 86.4632 33.6777 85.6566 31.4113C87.4101 30.9995 89.2101 30.7826 91.0187 30.7652L90.951 37.8461ZM93.434 37.7114C92.8583 37.7926 92.2773 37.8376 91.695 37.8461V30.7382C93.5037 30.7545 95.3038 30.9714 97.057 31.3844C96.2231 33.6219 94.9991 35.7169 93.434 37.5858V37.7114ZM102.274 33.2062C100.238 35.329 97.5337 36.8018 94.5451 37.4153C95.9369 35.6275 97.0373 33.6589 97.8106 31.5729C99.3532 31.9784 100.848 32.5255 102.274 33.2062ZM105.965 24.5458C105.89 27.5062 104.766 30.3609 102.767 32.6678C101.281 31.9183 99.7132 31.3166 98.0908 30.8729C98.7757 28.8072 99.1432 26.6621 99.1825 24.501L105.965 24.5458ZM102.767 15.7239C104.756 18.0187 105.879 20.8561 105.965 23.801H99.2019C99.1626 21.6399 98.795 19.4947 98.1101 17.4291C99.7306 16.9996 101.298 16.4131 102.786 15.679L102.767 15.7239ZM94.6031 10.9315C97.59 11.549 100.293 13.0211 102.332 15.1406C100.919 15.8191 99.4365 16.3662 97.9072 16.7739C97.1339 14.6879 96.0335 12.7193 94.6417 10.9315H94.6031ZM91.8206 10.6084C92.4028 10.6243 92.9835 10.6723 93.5596 10.752C95.1247 12.6209 96.3487 14.7159 97.1826 16.9534C95.4271 17.3563 93.6286 17.576 91.8206 17.6086V10.6084ZM89.2796 10.77C89.8558 10.6902 90.4365 10.6423 91.0187 10.6264V17.6265C89.2108 17.5928 87.4124 17.3731 85.6566 16.9714C86.4945 14.7355 87.7182 12.6411 89.2796 10.77ZM80.5168 15.1585C82.5524 13.0353 85.257 11.5624 88.2459 10.9495C86.8506 12.7367 85.747 14.7053 84.9707 16.7919C83.4439 16.3858 81.9647 15.8386 80.5554 15.1585H80.5168ZM76.8551 23.8189C76.9437 20.873 78.0705 18.0355 80.0627 15.7419C81.5495 16.4789 83.1172 17.0656 84.7388 17.4919C84.0446 19.5555 83.6768 21.7019 83.647 23.8638L76.8551 23.8189Z"  />
<path d="M5.77678 49.7092C5.38739 49.9017 4.95224 50.0005 4.51114 49.9964C4.10073 50.0154 3.69043 49.9569 3.30513 49.8242C2.91983 49.6915 2.56756 49.4875 2.2697 49.2246C1.9846 48.961 1.75836 48.6478 1.60398 48.3028C1.4496 47.9578 1.37013 47.5879 1.37013 47.2143C1.37013 46.8407 1.4496 46.4707 1.60398 46.1258C1.75836 45.7808 1.9846 45.4675 2.2697 45.204C2.84754 44.7015 3.61343 44.4278 4.40487 44.4412C4.87941 44.4499 5.34674 44.5508 5.77678 44.7373V46.1553C5.60717 45.9799 5.40026 45.8392 5.16911 45.7418C4.93797 45.6445 4.68761 45.5928 4.43385 45.5899C4.21928 45.5835 4.00548 45.6167 3.80481 45.6875C3.60415 45.7584 3.42061 45.8655 3.26482 46.0027C2.91665 46.33 2.72214 46.7721 2.72379 47.2322C2.71569 47.4464 2.75513 47.6598 2.83966 47.8592C2.92419 48.0586 3.052 48.2397 3.21513 48.3912C3.37826 48.5428 3.57321 48.6615 3.78787 48.74C4.00252 48.8185 4.23228 48.8552 4.46283 48.8476C4.71065 48.8455 4.9553 48.7957 5.18143 48.7015C5.40755 48.6073 5.61024 48.4707 5.77678 48.3002V49.7092Z"  />
<path d="M10.1428 45.6002H8.22981V46.6323H10.0558V47.6643H8.22981V48.84H10.1428V49.881H6.91586V44.5681H10.1428V45.6002Z"  />
<path d="M13.3219 44.5673C13.8614 44.5328 14.3953 44.6864 14.8194 44.998C15.0096 45.1617 15.1585 45.3625 15.2554 45.5859C15.3523 45.8093 15.3947 46.0499 15.3798 46.2904C15.3919 46.5197 15.3546 46.749 15.27 46.9648C15.1854 47.1806 15.0552 47.3784 14.8871 47.5468C14.6914 47.7135 14.4609 47.841 14.21 47.9213C13.959 48.0016 13.6928 48.0329 13.4282 48.0135H12.607V49.8802H11.3027V44.5673H13.3219ZM12.607 47.0083H13.0804C13.3343 47.0316 13.5879 46.9606 13.7857 46.8109C13.8595 46.7413 13.9174 46.6585 13.9556 46.5674C13.9938 46.4764 14.0116 46.3791 14.0079 46.2814C14.0131 46.1862 13.9959 46.0912 13.9576 46.0028C13.9192 45.9145 13.8605 45.835 13.7857 45.7698C13.6849 45.6907 13.5678 45.6315 13.4415 45.596C13.3153 45.5605 13.1825 45.5494 13.0514 45.5634H12.607V47.0083Z"  />
<path d="M18.0365 44.5672C18.5598 44.5299 19.0794 44.6737 19.4953 44.971C19.6335 45.1042 19.7414 45.2618 19.8128 45.4345C19.8841 45.6071 19.9175 45.7913 19.9108 45.9762C19.9176 46.2132 19.8505 46.4469 19.7176 46.6493C19.6084 46.8239 19.4427 46.962 19.2442 47.0441C19.5381 47.0874 19.8111 47.2126 20.0267 47.4031C20.2748 47.6444 20.4102 47.967 20.4035 48.3006C20.4135 48.4996 20.3783 48.6984 20.3001 48.884C20.2218 49.0696 20.1023 49.2377 19.9494 49.3775C19.5275 49.7017 18.9889 49.8653 18.4423 49.8352H16.2878V44.5672H18.0365ZM17.5921 46.7211H17.8046C18.0414 46.734 18.2769 46.6809 18.4809 46.5685C18.5571 46.5138 18.618 46.4428 18.6583 46.3615C18.6987 46.2803 18.7174 46.1912 18.7128 46.1018C18.7154 46.0162 18.6968 45.9311 18.6582 45.8533C18.6197 45.7755 18.5623 45.707 18.4906 45.6531C18.2833 45.5412 18.0429 45.4941 17.8046 45.5185H17.5921V46.7211ZM17.5921 48.9198H17.9109C18.2502 48.956 18.5924 48.8797 18.877 48.7044C18.9422 48.6489 18.9933 48.5807 19.0267 48.5047C19.0601 48.4286 19.075 48.3467 19.0702 48.2647C19.0741 48.1849 19.0598 48.1053 19.0281 48.031C18.9965 47.9568 18.9483 47.8896 18.8867 47.8339C18.6014 47.6603 18.2588 47.5871 17.9205 47.6275H17.5534L17.5921 48.9198Z"  />
<path d="M22.79 44.567V48.0401L25.4372 44.5041H26.6062V49.8799H25.2923V46.3978L22.6354 49.9427H21.4664V44.567H22.79Z"  />
<path d="M32.0748 49.7096C31.6887 49.9017 31.2568 50.0005 30.8188 49.9968C30.407 50.015 29.9955 49.956 29.6088 49.8234C29.222 49.6908 28.868 49.4873 28.5677 49.225C27.9989 48.6892 27.68 47.9671 27.68 47.2147C27.68 46.4623 27.9989 45.7401 28.5677 45.2044C29.1472 44.7043 29.9119 44.431 30.7028 44.4415C31.1775 44.4492 31.6451 44.5501 32.0748 44.7377V46.1557C31.9078 45.9797 31.7027 45.8384 31.473 45.741C31.2433 45.6436 30.994 45.5922 30.7415 45.5903C30.5269 45.5834 30.3129 45.6163 30.1122 45.6872C29.9114 45.7581 29.7279 45.8655 29.5725 46.0031C29.3983 46.164 29.2607 46.3557 29.1678 46.5669C29.0748 46.7781 29.0285 47.0045 29.0314 47.2326C29.0233 47.4468 29.0628 47.6602 29.1473 47.8596C29.2318 48.059 29.3596 48.2401 29.5228 48.3916C29.6859 48.5431 29.8809 48.6619 30.0955 48.7404C30.3102 48.8189 30.5399 48.8555 30.7705 48.848C31.0169 48.8463 31.2603 48.7967 31.4849 48.7024C31.7095 48.6081 31.9104 48.4712 32.0748 48.3006V49.7096Z"  />
<path d="M34.5383 46.5874H36.8184V44.5681H38.142V49.881H36.8184V47.6195H34.5383V49.881H33.2147V44.5681H34.5383V46.5874Z"  />
<path d="M42.8374 48.8759H40.6733L40.2385 49.881H38.8666L41.1757 44.5681H42.3833L44.6441 49.881H43.2625L42.8374 48.8759ZM42.4799 47.9336L41.7747 46.1387L41.0597 47.9336H42.4799Z"  />
<path d="M49.3202 49.8801H47.958V47.9416H47.7841L46.4218 49.8801H44.905L46.5571 47.798C46.2521 47.7506 45.9694 47.6193 45.7455 47.4211C45.5781 47.2693 45.4481 47.0856 45.3647 46.8826C45.2813 46.6796 45.2464 46.4622 45.2624 46.2454C45.2513 46.032 45.2866 45.8186 45.3663 45.6181C45.446 45.4177 45.5684 45.2342 45.7262 45.0787C45.9382 44.8967 46.1883 44.7574 46.4609 44.6693C46.7336 44.5813 47.0229 44.5465 47.3107 44.5672H49.2429L49.3202 49.8801ZM48.0063 45.5723H47.6971C47.421 45.5533 47.1459 45.6196 46.9145 45.7608C46.8397 45.8285 46.7803 45.9095 46.7397 45.9988C46.6992 46.0882 46.6782 46.1843 46.6782 46.2813C46.6782 46.3783 46.6992 46.4744 46.7397 46.5638C46.7803 46.6532 46.8397 46.7341 46.9145 46.8018C47.1513 46.9549 47.4389 47.0248 47.7261 46.9993H48.0353L48.0063 45.5723Z"  />
<path d="M56.1025 46.7848L58.0541 44.5681H59.6676L57.3489 47.081L59.8512 49.881H58.1507L56.1025 47.5207V49.881H54.7789V44.5681H56.1025V46.7848Z"  />
<path d="M65.3191 45.213C65.6053 45.4752 65.8316 45.7885 65.9843 46.1339C66.1371 46.4793 66.2131 46.8499 66.2079 47.2233C66.2128 47.594 66.1364 47.9617 65.9837 48.3042C65.8309 48.6467 65.6048 48.9568 65.3191 49.2156C65.0242 49.4752 64.6768 49.6778 64.297 49.8119C63.9173 49.9459 63.5127 50.0086 63.1066 49.9964C62.2942 50.0104 61.5077 49.7304 60.9135 49.2156C60.6279 48.9605 60.4017 48.6536 60.2488 48.314C60.0959 47.9744 60.0196 47.6093 60.0247 47.2412C60.0355 46.488 60.3531 45.7665 60.9135 45.222C61.5299 44.7209 62.3213 44.4446 63.1404 44.4446C63.9596 44.4446 64.751 44.7209 65.3674 45.222L65.3191 45.213ZM61.8893 46.0387C61.723 46.1975 61.5928 46.3859 61.5065 46.5925C61.4202 46.7991 61.3795 47.0197 61.3869 47.2412C61.3714 47.4655 61.4074 47.6902 61.4923 47.9006C61.5772 48.111 61.7093 48.3023 61.8796 48.4618C62.0412 48.6088 62.2333 48.7236 62.4443 48.7992C62.6553 48.8748 62.8807 48.9096 63.1066 48.9015C63.3401 48.9101 63.573 48.8739 63.7908 48.7952C64.0085 48.7164 64.2065 48.5968 64.3723 48.4438C64.5414 48.2906 64.6736 48.1057 64.7602 47.9016C64.8468 47.6974 64.8858 47.4784 64.8747 47.2592C64.8855 47.0412 64.8476 46.8235 64.7633 46.6198C64.679 46.4161 64.5502 46.2308 64.385 46.0757C64.2198 45.9205 64.0217 45.7988 63.8034 45.7183C63.585 45.6378 63.3511 45.6002 63.1163 45.6079C62.6492 45.6012 62.198 45.7656 61.8603 46.0656"  />
<path d="M67.0105 49.881L67.9283 44.5681H69.0297L70.45 47.7451L71.8798 44.5681H72.9716L73.8894 49.881H72.5755L72.1214 46.7041L70.6818 49.881H70.2181L68.7882 46.7041L68.3341 49.881H67.0105Z"  />
<path d="M79.7728 44.5681V49.881H78.4492V45.6002H76.285V49.881H74.9614V44.5681H79.7728Z"  />
<path d="M84.478 48.8759H82.3138L81.8694 49.881H80.5071L82.8066 44.5681H84.0142L86.275 49.881H84.9031L84.478 48.8759ZM84.1012 47.9336L83.3959 46.1387L82.6906 47.9336H84.1012Z"  />
<path d="M88.3231 46.5874H90.6032V44.5681H91.9268V49.881H90.6032V47.6195H88.3231V49.881H86.9995V44.5681H88.3231V46.5874Z"  />
<path d="M94.5837 44.567V48.0401L97.2309 44.5041H98.4V49.8799H97.0764V46.3978L94.4292 49.9427H93.2601V44.567H94.5837Z"  />
<path d="M103.646 49.8801H102.322V47.9416H102.149L100.806 49.8801H99.2792L100.922 47.798C100.617 47.7506 100.334 47.6193 100.11 47.4211C99.9426 47.2693 99.8126 47.0856 99.7292 46.8826C99.6458 46.6796 99.6109 46.4622 99.627 46.2454C99.6099 45.8149 99.7766 45.3956 100.091 45.0787C100.303 44.8967 100.553 44.7574 100.825 44.6693C101.098 44.5813 101.387 44.5465 101.675 44.5672H103.607L103.646 49.8801ZM102.322 45.5723H102.013C101.737 45.554 101.462 45.6202 101.231 45.7608C101.151 45.8274 101.089 45.9093 101.047 46.0007C101.005 46.0922 100.986 46.191 100.989 46.2903C100.984 46.3854 101.001 46.4805 101.04 46.5688C101.078 46.6572 101.137 46.7367 101.211 46.8018C101.445 46.955 101.729 47.0251 102.013 46.9993H102.322V45.5723Z"  />
</svg>
