<svg width="66" height="41" viewBox="0 0 66 41" fill="none" xmlns="http://www.w3.org/2000/svg">
<path d="M45.0477 30.9917C45.0477 28.5289 47.0443 26.5323 49.5071 26.5323C51.97 26.5323 53.9665 28.5289 53.9665 30.9917M15.5148 31.2958V19.5678H24.1052V31.2958M24.1806 23.4523L40.9133 25.021V31.1464M24.0309 19.5678H33.4432V24.1993M33.3484 19.5713L35.4282 12.735H22.0462L24.1259 19.5713M28.7361 12.7108V-1.43051e-05M25.9853 2.71921H31.4869M25.9857 6.35541H31.4873M12.2116 40H54.1472C57.8212 40 61.1994 37.9853 62.9456 34.7527L65.0298 30.8944H1.51758L3.22799 34.3925C4.90581 37.824 8.39189 40 12.2116 40Z" />
</svg>
