<svg width="41" height="23" viewBox="0 0 41 23" fill="none" xmlns="http://www.w3.org/2000/svg">
<path fill-rule="evenodd" clip-rule="evenodd" d="M7.67652 22.8H34.0875C36.4015 22.8 38.529 21.5311 39.6288 19.4952L40.9414 17.0652H0.941406L2.01862 19.2684C3.07532 21.4295 5.27085 22.8 7.67652 22.8ZM5.63959 21.2089C6.34448 21.2089 6.9159 20.6375 6.9159 19.9326C6.9159 19.2277 6.34448 18.6563 5.63959 18.6563C4.93471 18.6563 4.36328 19.2277 4.36328 19.9326C4.36328 20.6375 4.93471 21.2089 5.63959 21.2089ZM8.94604 21.2089C9.65093 21.2089 10.2224 20.6375 10.2224 19.9326C10.2224 19.2277 9.65093 18.6563 8.94604 18.6563C8.24116 18.6563 7.66973 19.2277 7.66973 19.9326C7.66973 20.6375 8.24116 21.2089 8.94604 21.2089ZM13.5269 19.9326C13.5269 20.6375 12.9555 21.2089 12.2506 21.2089C11.5457 21.2089 10.9743 20.6375 10.9743 19.9326C10.9743 19.2277 11.5457 18.6563 12.2506 18.6563C12.9555 18.6563 13.5269 19.2277 13.5269 19.9326ZM29.6334 21.2089C30.3383 21.2089 30.9097 20.6375 30.9097 19.9326C30.9097 19.2277 30.3383 18.6563 29.6334 18.6563C28.9286 18.6563 28.3571 19.2277 28.3571 19.9326C28.3571 20.6375 28.9286 21.2089 29.6334 21.2089ZM34.2144 19.9326C34.2144 20.6375 33.6429 21.2089 32.938 21.2089C32.2332 21.2089 31.6617 20.6375 31.6617 19.9326C31.6617 19.2277 32.2332 18.6563 32.938 18.6563C33.6429 18.6563 34.2144 19.2277 34.2144 19.9326ZM36.2439 21.2089C36.9488 21.2089 37.5202 20.6375 37.5202 19.9326C37.5202 19.2277 36.9488 18.6563 36.2439 18.6563C35.539 18.6563 34.9676 19.2277 34.9676 19.9326C34.9676 20.6375 35.539 21.2089 36.2439 21.2089Z" fill="white"/>
<path d="M3.94141 10.2998V17.2998H19.9414V13.7998L14.9414 13.2998V10.2998H3.94141Z" fill="white"/>
<path d="M32.9414 13.1C30.7323 13.1 28.9414 14.8908 28.9414 17.1H36.9414C36.9414 14.8908 35.1505 13.1 32.9414 13.1Z" fill="white"/>
<path d="M15.9402 6.30002H8.04102L8.94102 10.3H14.9402L15.9402 6.30002Z" fill="white"/>
<path d="M12.1406 6.29999V0.5" stroke="white"/>
<path d="M10.6426 3.09998H13.6426" stroke="white"/>
</svg>
