<svg width="41" height="23" viewBox="0 0 41 23" fill="none" xmlns="http://www.w3.org/2000/svg">
<path fill-rule="evenodd" clip-rule="evenodd" d="M6.80543 22.3H33.2165C35.5304 22.3 37.658 21.0311 38.7577 18.9952L40.0703 16.5652H0.0703125L1.14753 18.7684C2.20422 20.9295 4.39976 22.3 6.80543 22.3ZM4.7685 20.7089C5.47339 20.7089 6.04481 20.1375 6.04481 19.4326C6.04481 18.7277 5.47339 18.1563 4.7685 18.1563C4.06361 18.1563 3.49219 18.7277 3.49219 19.4326C3.49219 20.1375 4.06361 20.7089 4.7685 20.7089ZM8.07495 20.7089C8.77984 20.7089 9.35126 20.1375 9.35126 19.4326C9.35126 18.7277 8.77984 18.1563 8.07495 18.1563C7.37006 18.1563 6.79864 18.7277 6.79864 19.4326C6.79864 20.1375 7.37006 20.7089 8.07495 20.7089ZM12.6558 19.4326C12.6558 20.1375 12.0844 20.7089 11.3795 20.7089C10.6746 20.7089 10.1032 20.1375 10.1032 19.4326C10.1032 18.7277 10.6746 18.1563 11.3795 18.1563C12.0844 18.1563 12.6558 18.7277 12.6558 19.4326ZM28.7623 20.7089C29.4672 20.7089 30.0387 20.1375 30.0387 19.4326C30.0387 18.7277 29.4672 18.1563 28.7623 18.1563C28.0575 18.1563 27.486 18.7277 27.486 19.4326C27.486 20.1375 28.0575 20.7089 28.7623 20.7089ZM33.3433 19.4326C33.3433 20.1375 32.7718 20.7089 32.067 20.7089C31.3621 20.7089 30.7906 20.1375 30.7906 19.4326C30.7906 18.7277 31.3621 18.1563 32.067 18.1563C32.7718 18.1563 33.3433 18.7277 33.3433 19.4326ZM35.3728 20.7089C36.0777 20.7089 36.6491 20.1375 36.6491 19.4326C36.6491 18.7277 36.0777 18.1563 35.3728 18.1563C34.6679 18.1563 34.0965 18.7277 34.0965 19.4326C34.0965 20.1375 34.6679 20.7089 35.3728 20.7089Z" fill="#004687"/>
<path d="M3.07031 9.7998V16.7998H19.0703V13.2998L14.0703 12.7998V9.7998H3.07031Z" fill="#004687"/>
<path d="M32.0703 12.6C29.8612 12.6 28.0703 14.3908 28.0703 16.6H36.0703C36.0703 14.3908 34.2795 12.6 32.0703 12.6Z" fill="#004687"/>
<path d="M15.0691 5.80002H7.16992L8.06992 9.80002H14.0691L15.0691 5.80002Z" fill="#004687"/>
<path d="M11.2695 5.79999V0" stroke="#004687"/>
<path d="M9.77148 2.59998H12.7715" stroke="#004687"/>
</svg>
