<svg width="43" height="29" fill="none" xmlns="http://www.w3.org/2000/svg"><path d="M14.085 22.318v4.325m-2.289-4.325v4.709m-8.37-4.71v4.873c.63.316 1.515.386 2.146.07l.936-.467a2.24 2.24 0 012.002 0l.936.468a2.24 2.24 0 002.003 0l.936-.468a2.24 2.24 0 012.002 0l1.008.511m-9.68-4.986v4.85M1.12 19.606h15.206v2.873H1.119v-2.873zm14.263 7.69l.936.468c.63.315 1.372.315 2.002 0l.936-.468a2.24 2.24 0 012.003 0l.936.468c.63.315 1.372.315 2.002 0l.936-.468a2.24 2.24 0 012.003 0l.936.468a2.24 2.24 0 002.003 0l.936-.468a2.24 2.24 0 012.002 0l.938.468a2.24 2.24 0 002.003 0l.936-.468a2.24 2.24 0 012.002 0l.936.468a2.24 2.24 0 002.003 0l.936-.468M24.023 5.125V1.708h6.055m6.055 3.417V1.708h-6.055m0 0V0"/><path d="M21.781 27.546l-2.834-13.913L30.13 9.511l11.078 4.122-2.73 13.913m-8.4-22.269v22.526"/><path d="M20.936 12.907V5.201h18.375v7.706M25.378 5.163v6.036m9.415-6.036v6.036M20.936 8.162h18.337"/></svg>