<svg width="23" height="30" fill="none" xmlns="http://www.w3.org/2000/svg"><path d="M19.866 20.483v6.733m-16.99 0v-6.733m16.99-8.782v6.732m-16.99 0v-6.732m16.99-8.587v6.733m-16.99 0V3.114"/><rect x="1.046" y="1" width="20.651" height="2.114" rx="1.057"/><path d="M12.085 9.629h8.555a1.057 1.057 0 110 2.114h-7.22m-2.865-2.114H2.103a1.057 1.057 0 100 2.114h7.14m5.97 6.514h5.427a1.057 1.057 0 110 2.114h-7.395m-5.687-2.114H2.103a1.057 1.057 0 100 2.114H9.7"/><rect x="1.046" y="26.886" width="20.651" height="2.114" rx="1.057"/><path d="M8.385 19.454l.081.08a4.203 4.203 0 006.509-5.24l-3.672-5.72-3.507 5.51a4.317 4.317 0 00.59 5.37zm3.079-.224a2.71 2.71 0 01-2.71-2.71"/></svg>