<svg width="40" height="30" fill="none" xmlns="http://www.w3.org/2000/svg"><path d="M37.54 12.234c-.407 3.713-3.447 6.598-7.137 6.598-3.69 0-6.73-2.885-7.137-6.598m7.182-7.547v14.145m-3.28-10.474h6.562m-11.585 6.319l.934-3.008 2.388 2.126m13.285.882l-.934-3.008-2.388 2.126m-30.475 1.41h12.04l10.153 10.271h9.839c.974 0 1.764.8 1.764 1.786 0 .985-.79 1.785-1.764 1.785H19.799l-8.413-6.7h-6.43m14.952-4.18l4.473 4.525c.67.679.67 1.779 0 2.457a1.704 1.704 0 01-2.43 0l-4.774-4.83M.752 14.375h4.045v8.916H.752v-8.917zm31.48-11.478c0 1.021-.798 1.85-1.784 1.85-.985 0-1.784-.829-1.784-1.85 0-1.022.799-1.85 1.784-1.85.986 0 1.785.828 1.785 1.85z"/></svg>