<svg width="40" height="23" fill="none" xmlns="http://www.w3.org/2000/svg"><path d="M34.336.48c1.024 0 1.325.581 1.325 1.244 0 .83-.68 1.596-1.836 1.596-.967 0-1.43-.477-1.403-1.264.002-.663.568-1.576 1.914-1.576zM32.1 13.4c-.669 0-1.16-.435-.69-2.345l.768-3.386c.133-.543.156-.76 0-.76-.2 0-1.07.375-1.583.744l-.333-.586c1.628-1.454 3.498-2.306 4.3-2.306.67 0 .781.846.447 2.149l-.88 3.56c-.155.628-.088.845.067.845.2 0 .858-.26 1.505-.804l.379.543c-1.583 1.693-3.31 2.345-3.98 2.345z" fill="#fff"/><path d="M5.035 7.771h12.04l10.153 10.27h9.839c.974 0 1.765.8 1.765 1.786s-.79 1.785-1.765 1.785H19.879l-8.413-6.7h-6.43m14.952-4.179l4.473 4.525c.67.678.67 1.778 0 2.457a1.704 1.704 0 01-2.429 0l-4.775-4.83M.832 6.94h4.045v8.916H.832V6.94z" stroke="#fff"/></svg>