<svg width="41" height="23" fill="none" xmlns="http://www.w3.org/2000/svg"><path fill-rule="evenodd" clip-rule="evenodd" d="M7.677 22.8h26.41a6.298 6.298 0 005.542-3.305l1.312-2.43h-40l1.078 2.203A6.298 6.298 0 007.677 22.8zM5.64 21.209a1.276 1.276 0 100-2.553 1.276 1.276 0 000 2.553zm3.306 0a1.276 1.276 0 100-2.553 1.276 1.276 0 000 2.553zm4.58-1.276a1.276 1.276 0 11-2.552 0 1.276 1.276 0 012.553 0zm16.107 1.276a1.276 1.276 0 100-2.553 1.276 1.276 0 000 2.553zm4.581-1.276a1.276 1.276 0 11-2.552 0 1.276 1.276 0 012.552 0zm2.03 1.276a1.276 1.276 0 100-2.553 1.276 1.276 0 000 2.553z" fill="#fff"/><path d="M3.941 10.3v7h16v-3.5l-5-.5v-3h-11zm29 2.8a4 4 0 00-4 4h8a4 4 0 00-4-4zM15.94 6.3H8.041l.9 4h6l1-4z" fill="#fff"/><path d="M12.14 6.3V.5m-1.497 2.6h3" stroke="#fff"/></svg>