<svg width="43" height="29" viewBox="0 0 43 29" fill="none" xmlns="http://www.w3.org/2000/svg">
<path d="M13.6948 22.3176V26.6427M11.4055 22.3176V27.0268M3.03503 22.3176V27.1904C3.66534 27.5056 4.55079 27.5759 5.1811 27.2607L6.11712 26.7927C6.74743 26.4776 7.48934 26.4776 8.11965 26.7927L9.05566 27.2607C9.68597 27.5759 10.4279 27.5759 11.0582 27.2607L11.9942 26.7927C12.6245 26.4776 13.3664 26.4776 13.9967 26.7927L15.0039 27.3044M5.32469 22.3176V27.1685M0.728516 19.6055H15.934V22.478H0.728516V19.6055Z" stroke="white"/>
<path d="M14.9927 27.2956L15.9287 27.7636C16.559 28.0788 17.3009 28.0788 17.9312 27.7636L18.8672 27.2956C19.4975 26.9805 20.2395 26.9805 20.8698 27.2956L21.8058 27.7636C22.4361 28.0788 23.178 28.0788 23.8083 27.7636L24.7443 27.2956C25.3746 26.9805 26.1165 26.9805 26.7468 27.2956L27.6829 27.7636C28.3132 28.0788 29.0551 28.0788 29.6854 27.7636L30.6214 27.2956C31.2517 26.9805 31.9936 26.9805 32.6239 27.2956L33.562 27.7636C34.1923 28.0788 34.9342 28.0788 35.5645 27.7636L36.5006 27.2956C37.1309 26.9805 37.8728 26.9805 38.5031 27.2956L39.4391 27.7636C40.0694 28.0788 40.8113 28.0788 41.4416 27.7636L42.3777 27.2956" stroke="white"/>
<path d="M23.6318 5.12503V1.70833H29.6871M35.7424 5.12503V1.70833H29.6871M29.6871 1.70833V0" stroke="white"/>
<path d="M21.3911 27.5459L18.5571 13.6334L29.7387 9.5112L40.8171 13.6334L38.0862 27.5459" stroke="white"/>
<path d="M29.6875 5.27689V27.8034" stroke="white"/>
<path d="M20.5454 12.9074V5.20093H38.9199V12.9074" stroke="white"/>
<path d="M24.9873 5.16296V11.1991" stroke="white"/>
<path d="M34.4019 5.16296V11.1991" stroke="white"/>
<path d="M20.5454 8.16208H38.8816" stroke="white"/>
</svg>
