<svg width="39" height="29" viewBox="0 0 39 29" fill="none" xmlns="http://www.w3.org/2000/svg">
<rect x="1.4541" y="19.689" width="15.5593" height="8.81099" stroke="white"/>
<path d="M3.58691 19.5464V28.705" stroke="white"/>
<path d="M5.85693 19.5464V28.705" stroke="white"/>
<path d="M8.12646 19.5464V28.705" stroke="white"/>
<path d="M10.395 19.5464V28.705" stroke="white"/>
<path d="M12.6646 19.5464V28.705" stroke="white"/>
<path d="M14.9346 19.5464V28.705" stroke="white"/>
<rect x="22.0928" y="19.689" width="15.5593" height="8.81099" stroke="white"/>
<path d="M24.2251 19.5464V28.705" stroke="white"/>
<path d="M26.4956 19.5464V28.705" stroke="white"/>
<path d="M28.7651 19.5464V28.705" stroke="white"/>
<path d="M31.0342 19.5464V28.705" stroke="white"/>
<path d="M33.3027 19.5464V28.705" stroke="white"/>
<path d="M35.5732 19.5464V28.705" stroke="white"/>
<rect x="11.7729" y="10.9585" width="15.5593" height="8.81099" stroke="white"/>
<path d="M13.9053 10.8158V19.9744" stroke="white"/>
<path d="M16.1758 10.8158V19.9744" stroke="white"/>
<path d="M18.4453 10.8158V19.9744" stroke="white"/>
<path d="M20.7139 10.8158V19.9744" stroke="white"/>
<path d="M22.9829 10.8158V19.9744" stroke="white"/>
<path d="M25.2534 10.8158V19.9744" stroke="white"/>
<path d="M34.1554 7.52572C32.9128 6.36142 26.7956 1 19.5538 1C12.3064 1 6.19414 6.36081 4.95215 7.52572C6.19475 8.69001 12.3119 14.0514 19.5538 14.0514C26.8011 14.0514 32.9134 8.69063 34.1554 7.52572Z" fill="#A0A0A0" stroke="white"/>
<ellipse cx="19.5539" cy="7.52572" rx="6.50798" ry="6.52572" fill="#A0A0A0" stroke="white"/>
<ellipse cx="19.554" cy="7.5257" rx="2.03882" ry="2.04437" fill="#A0A0A0" stroke="white"/>
</svg>
