<svg width="39" height="24" viewBox="0 0 39 24" fill="none" xmlns="http://www.w3.org/2000/svg">
<path d="M22.8668 22.73C22.3268 23.27 21.4468 23.27 20.9068 22.73L17.7468 19.57C17.2068 19.03 17.2068 18.15 17.7468 17.61C18.2868 17.07 19.1668 17.07 19.7068 17.61L22.8668 20.77C23.4068 21.31 23.4068 22.19 22.8668 22.73Z" stroke="white" stroke-miterlimit="10"/>
<path d="M24.8277 20.77C24.2877 21.31 23.4077 21.31 22.8677 20.77L19.7077 17.61C19.1677 17.07 19.1677 16.19 19.7077 15.65C20.2477 15.11 21.1277 15.11 21.6677 15.65L24.8277 18.81C25.3677 19.36 25.3677 20.24 24.8277 20.77Z" stroke="white" stroke-miterlimit="10"/>
<path d="M26.7877 18.82C26.2477 19.36 25.3677 19.36 24.8277 18.82L21.6677 15.66C21.1277 15.12 21.1277 14.24 21.6677 13.7C22.2077 13.16 23.0877 13.16 23.6277 13.7L26.7877 16.86C27.3177 17.4 27.3177 18.28 26.7877 18.82Z" stroke="white" stroke-miterlimit="10"/>
<path d="M28.7369 16.86C28.1969 17.4 27.3169 17.4 26.7769 16.86L23.6169 13.7C23.0769 13.16 23.0769 12.28 23.6169 11.74C24.1569 11.2 25.0369 11.2 25.5769 11.74L28.7369 14.9C29.2769 15.44 29.2769 16.32 28.7369 16.86Z" stroke="white" stroke-miterlimit="10"/>
<path d="M11.8873 16.86C11.3473 17.4 10.4673 17.4 9.92727 16.86C9.38727 16.32 9.38727 15.44 9.92727 14.9L18.0373 6.79999L20.3073 8.92999C20.8473 9.46999 21.7273 9.46999 22.2673 8.92999C22.8073 8.38999 22.8073 7.50999 22.2673 6.96999L18.6947 3.4215C18.1327 2.86328 17.3727 2.54999 16.5806 2.54999H5.19727" stroke="white" stroke-miterlimit="10"/>
<path d="M19.9277 4.32999L20.8291 3.42867C21.3917 2.86606 22.1547 2.54999 22.9504 2.54999H33.5077" stroke="white" stroke-miterlimit="10"/>
<path d="M13.8377 18.82C13.2977 19.36 12.4177 19.36 11.8777 18.82C11.3377 18.28 11.3377 17.4 11.8777 16.86L14.7877 14.01" stroke="white" stroke-miterlimit="10"/>
<path d="M17.4776 19.17L15.7976 20.78C15.2576 21.32 14.3776 21.32 13.8376 20.78C13.2976 20.24 13.2976 19.36 13.8376 18.82L16.7476 15.97" stroke="white" stroke-miterlimit="10"/>
<path d="M19.2776 21.25L17.7576 22.73C17.2176 23.27 16.3376 23.27 15.7976 22.73C15.2576 22.19 15.2576 21.31 15.7976 20.77" stroke="white" stroke-miterlimit="10"/>
<path d="M5.16699 11.37L6.84305 13.0984C7.40808 13.6811 8.1851 14.01 8.99675 14.01H10.827" stroke="white" stroke-miterlimit="10"/>
<path d="M5.13758 1H0.517578V13.3H5.13758V1Z" stroke="white" stroke-miterlimit="10"/>
<path d="M33.4969 11.37L31.8209 13.0984C31.2558 13.6811 30.4788 14.01 29.6672 14.01H27.8369" stroke="white" stroke-miterlimit="10"/>
<path d="M33.5167 13.3143L38.1367 13.3143L38.1367 1.01427L33.5167 1.01427L33.5167 13.3143Z" stroke="white" stroke-miterlimit="10"/>
</svg>
