<svg width="42" height="40" viewBox="0 0 42 40" fill="none" xmlns="http://www.w3.org/2000/svg">
<path d="M19.1074 7.32631H23.8529V1H30.6552V7.32631H36.8772V14.1286H30.6552V17.6275" stroke="white"/>
<path d="M7.90381 24.8867C9.31553 24.8867 10.46 23.7423 10.46 22.3306C10.46 20.9188 9.31553 19.7744 7.90381 19.7744C6.49208 19.7744 5.34766 20.9188 5.34766 22.3306C5.34766 23.7423 6.49208 24.8867 7.90381 24.8867Z" stroke="white" stroke-miterlimit="10"/>
<path d="M7.95545 24.9075H10.5531L14.281 28.6354C14.6854 29.0398 14.6854 29.7035 14.281 30.1079L14.2758 30.1131C13.8714 30.5175 13.2078 30.5175 12.8033 30.1131L10.4701 27.7799V31.0256L11.7923 37.4497C11.9582 38.2482 11.3464 39 10.5272 39C9.92053 39 9.39686 38.58 9.26723 37.989L7.92435 31.9641L6.58664 37.989C6.45702 38.58 5.93335 39 5.32671 39C4.5075 39 3.89568 38.2482 4.0616 37.4497L5.38375 31.0256V27.7799L3.05054 30.1131C2.64612 30.5175 1.98245 30.5175 1.57803 30.1131L1.57285 30.1079C1.16843 29.7035 1.16843 29.0398 1.57285 28.6354L5.30079 24.9075H7.89842H7.95545Z" stroke="white" stroke-miterlimit="10" stroke-linecap="round" stroke-linejoin="round"/>
<path d="M21.2183 24.8867C22.63 24.8867 23.7744 23.7423 23.7744 22.3306C23.7744 20.9188 22.63 19.7744 21.2183 19.7744C19.8065 19.7744 18.6621 20.9188 18.6621 22.3306C18.6621 23.7423 19.8065 24.8867 21.2183 24.8867Z" stroke="white" stroke-miterlimit="10"/>
<path d="M21.2699 24.9075H23.8675L27.5955 28.6354C27.9999 29.0398 27.9999 29.7035 27.5955 30.1079L27.5903 30.1131C27.1859 30.5175 26.5222 30.5175 26.1178 30.1131L23.7846 27.7799V31.0256L25.1067 37.4497C25.2726 38.2482 24.6608 39 23.8416 39C23.235 39 22.7113 38.58 22.5817 37.989L21.2388 31.9641L19.9011 37.989C19.7715 38.58 19.2478 39 18.6412 39C17.822 39 17.2101 38.2482 17.3761 37.4497L18.6982 31.0256V27.7799L16.365 30.1131C15.9606 30.5175 15.2969 30.5175 14.8925 30.1131L14.8873 30.1079C14.4829 29.7035 14.4829 29.0398 14.8873 28.6354L18.6152 24.9075H21.2129H21.2699Z" stroke="white" stroke-miterlimit="10" stroke-linecap="round" stroke-linejoin="round"/>
<path d="M34.5542 24.8867C35.9659 24.8867 37.1104 23.7423 37.1104 22.3306C37.1104 20.9188 35.9659 19.7744 34.5542 19.7744C33.1425 19.7744 31.998 20.9188 31.998 22.3306C31.998 23.7423 33.1425 24.8867 34.5542 24.8867Z" stroke="white" stroke-miterlimit="10"/>
<path d="M34.6068 24.9075H37.2045L40.9324 28.6354C41.3368 29.0398 41.3368 29.7035 40.9324 30.1079L40.9272 30.1131C40.5228 30.5175 39.8591 30.5175 39.4547 30.1131L37.1215 27.7799V31.0256L38.4436 37.4497C38.6096 38.2482 37.9977 39 37.1785 39C36.5719 39 36.0482 38.58 35.9186 37.989L34.5757 31.9641L33.238 37.989C33.1084 38.58 32.5847 39 31.9781 39C31.1589 39 30.547 38.2482 30.713 37.4497L32.0351 31.0256V27.7799L29.7019 30.1131C29.2975 30.5175 28.6338 30.5175 28.2294 30.1131L28.2242 30.1079C27.8198 29.7035 27.8198 29.0398 28.2242 28.6354L31.9522 24.9075H34.5498H34.6068Z" stroke="white" stroke-miterlimit="10" stroke-linecap="round" stroke-linejoin="round"/>
<path d="M27.5694 17.1275H6.45107C6.71211 11.5216 11.3397 7.05676 17.0102 7.05676C22.6807 7.05676 27.3083 11.5216 27.5694 17.1275Z" stroke="white"/>
<path d="M25.3931 10.8021C22.9782 11.9203 20.1002 12.5695 17.0105 12.5695C13.9208 12.5695 11.0428 11.9203 8.62793 10.8021" stroke="white"/>
<path d="M22.5289 17.6275C22.5289 11.7999 20.0583 7.07568 17.0106 7.07568C13.9628 7.07568 11.4922 11.7999 11.4922 17.6275" stroke="white"/>
<path d="M17.0107 7.12036V17.2361" stroke="white"/>
</svg>
