<svg width="35" height="34" viewBox="0 0 35 34" fill="none" xmlns="http://www.w3.org/2000/svg">
<path d="M17.3536 33V33.5H17.8536V33H17.3536ZM8.9356 33H8.4356V33.5H8.9356V33ZM8.9356 13.973L8.62881 13.5782C8.46011 13.7092 8.39333 13.933 8.46262 14.1351C8.53191 14.3372 8.72195 14.473 8.9356 14.473V13.973ZM17.3536 13.973V14.473C17.566 14.473 17.7553 14.3388 17.8255 14.1383C17.8957 13.9378 17.8316 13.7148 17.6656 13.5823L17.3536 13.973ZM2.5356 7.05405L2.24234 6.64908L2.0356 6.7988V7.05405H2.5356ZM5.70677 32.7117V33.2117H6.20677V32.7117H5.70677ZM2.5356 32.7117H2.0356V33.2117H2.5356V32.7117ZM0.517578 17.7207H0.0175781V18.2207H0.517578V17.7207ZM0.517578 12.2432V11.7432H0.0175781V12.2432H0.517578ZM2.5356 14.5496H2.0356V15.0496H2.5356V14.5496ZM10.8959 1L11.2378 0.635229L10.9368 0.353021L10.6026 0.59503L10.8959 1ZM26.3791 7.12414L26.3752 7.62412L26.4963 6.63807L26.3791 7.12414ZM16.6621 4.78041L16.7793 4.29434L16.7215 4.28041H16.6621V4.78041ZM14.0754 2.30236L14.194 1.81665L14.1356 1.80236H14.0754V2.30236ZM33.5412 12.0928V12.5928C33.7434 12.5928 33.9258 12.471 34.0031 12.2841C34.0805 12.0973 34.0378 11.8823 33.8948 11.7393L33.5412 12.0928ZM21.5885 22.143V21.643H21.0885V22.143H21.5885ZM32.5181 22.143H33.0181V21.643H32.5181V22.143ZM32.5181 29.3452V29.8452H33.0181V29.3452H32.5181ZM21.5885 29.3452H21.0885V29.8452H21.5885V29.3452ZM21.8663 7.0891L21.8625 7.58908L21.8663 7.0891ZM8.9356 7.55405H17.3536V6.55405H8.9356V7.55405ZM16.8536 7.05405V33H17.8536V7.05405H16.8536ZM17.3536 32.5H8.9356V33.5H17.3536V32.5ZM9.4356 33V7.05405H8.4356V33H9.4356ZM8.9356 14.473H17.3536V13.473H8.9356V14.473ZM8.87794 20.8153H17.5266V19.8153H8.87794V20.8153ZM8.87794 27.1577H17.5266V26.1577H8.87794V27.1577ZM8.61297 7.43604L12.8796 11.0396L13.5249 10.2757L9.25822 6.67207L8.61297 7.43604ZM12.8902 11.0484L17.0416 14.3637L17.6656 13.5823L13.5143 10.267L12.8902 11.0484ZM8.88236 14.6729L12.9892 17.5052L13.5569 16.682L9.45009 13.8497L8.88236 14.6729ZM12.9892 17.5052L17.2427 20.4386L17.8105 19.6154L13.5569 16.682L12.9892 17.5052ZM8.87366 20.9505L12.9097 23.8627L13.4948 23.0517L9.45879 20.1396L8.87366 20.9505ZM12.9097 23.8627L16.9457 26.7748L17.5309 25.9639L13.4948 23.0517L12.9097 23.8627ZM8.88544 27.3582L12.9541 30.1197L13.5157 29.2923L9.44702 26.5308L8.88544 27.3582ZM12.9541 30.1197L16.9575 32.8369L17.5191 32.0094L13.5157 29.2923L12.9541 30.1197ZM9.24238 14.3678L13.509 11.0525L12.8955 10.2628L8.62881 13.5782L9.24238 14.3678ZM13.53 11.0352L17.6814 7.43164L17.0258 6.67647L12.8745 10.2801L13.53 11.0352ZM9.45685 20.4339L13.5637 17.5004L12.9825 16.6867L8.87561 19.6202L9.45685 20.4339ZM13.5637 17.5004L17.5289 14.6681L16.9477 13.8544L12.9825 16.6867L13.5637 17.5004ZM9.45879 26.7748L13.4948 23.8627L12.9097 23.0517L8.87366 25.9639L9.45879 26.7748ZM13.4948 23.8627L17.5309 20.9505L16.9457 20.1396L12.9097 23.0517L13.4948 23.8627ZM9.16184 33.123L13.5188 30.1176L12.951 29.2944L8.59403 32.2999L9.16184 33.123ZM13.5188 30.1176L17.5222 27.3561L16.9544 26.533L12.951 29.2944L13.5188 30.1176ZM8.9356 6.55405H2.5356V7.55405H8.9356V6.55405ZM5.20677 7.05405V14.5496H6.20677V7.05405H5.20677ZM5.20677 14.5496V17.7207H6.20677V14.5496H5.20677ZM5.20677 17.7207V32.7117H6.20677V17.7207H5.20677ZM5.70677 32.2117H2.5356V33.2117H5.70677V32.2117ZM3.0356 32.7117V17.7207H2.0356V32.7117H3.0356ZM5.70677 17.2207H2.5356V18.2207H5.70677V17.2207ZM2.5356 17.2207H0.517578V18.2207H2.5356V17.2207ZM1.01758 17.7207V12.2432H0.0175781V17.7207H1.01758ZM0.517578 12.7432H2.5356V11.7432H0.517578V12.7432ZM5.70677 14.0496H2.5356V15.0496H5.70677V14.0496ZM3.0356 14.5496V12.2432H2.0356V14.5496H3.0356ZM3.0356 12.2432V7.05405H2.0356V12.2432H3.0356ZM2.82885 7.45902L11.1891 1.40497L10.6026 0.59503L2.24234 6.64908L2.82885 7.45902ZM7.72548 7.30961L11.3256 1.25556L10.4661 0.74444L6.86597 6.79849L7.72548 7.30961ZM10.5539 1.36477L17.0116 7.41883L17.6956 6.68928L11.2378 0.635229L10.5539 1.36477ZM25.2856 22.1431C25.2856 21.2505 26.0091 20.527 26.9016 20.527V19.527C25.4568 19.527 24.2856 20.6983 24.2856 22.1431H25.2856ZM26.9016 20.527C27.7941 20.527 28.5176 21.2505 28.5176 22.1431H29.5176C29.5176 20.6983 28.3464 19.527 26.9016 19.527V20.527ZM5.79686 11.2675H8.74843V10.2675H5.79686V11.2675ZM26.4963 6.63807L16.7793 4.29434L16.5448 5.26647L26.2618 7.6102L26.4963 6.63807ZM16.6621 4.28041H14.9241V5.28041H16.6621V4.28041ZM27.8252 5.14736L14.194 1.81665L13.9567 2.78808L27.5878 6.11878L27.8252 5.14736ZM14.0754 1.80236H12.3374V2.80236H14.0754V1.80236ZM29.1585 7.23918C29.1585 7.87038 28.6468 8.38207 28.0156 8.38207V9.38207C29.1991 9.38207 30.1585 8.42266 30.1585 7.23918H29.1585ZM28.0156 8.38207C27.3844 8.38207 26.8727 7.87038 26.8727 7.23918H25.8727C25.8727 8.42266 26.8321 9.38207 28.0156 9.38207V8.38207ZM26.8727 7.23918C26.8727 6.60797 27.3844 6.09628 28.0156 6.09628V5.09628C26.8321 5.09628 25.8727 6.05569 25.8727 7.23918H26.8727ZM28.0156 6.09628C28.6468 6.09628 29.1585 6.60797 29.1585 7.23918H30.1585C30.1585 6.05569 29.1991 5.09628 28.0156 5.09628V6.09628ZM28.9838 8.24192L33.1876 12.4463L33.8948 11.7393L29.691 7.53486L28.9838 8.24192ZM33.5412 11.5928H17.6575V12.5928H33.5412V11.5928ZM17.6572 10.4385H31.45V9.4385H17.6572V10.4385ZM25.3869 12.2432V20.3463H26.3869V12.2432H25.3869ZM27.471 12.2432V20.3463H28.471V12.2432H27.471ZM21.5885 22.643H32.5181V21.643H21.5885V22.643ZM32.0181 22.143V29.3452H33.0181V22.143H32.0181ZM32.5181 28.8452H21.5885V29.8452H32.5181V28.8452ZM22.0885 29.3452V22.143H21.0885V29.3452H22.0885ZM17.3497 7.55404L21.8625 7.58908L21.8702 6.58911L17.3575 6.55407L17.3497 7.55404ZM21.8625 7.58908L26.3752 7.62412L26.383 6.62415L21.8702 6.58911L21.8625 7.58908Z" fill="white"/>
</svg>
