<svg width="42" height="16" viewBox="0 0 42 16" fill="none" xmlns="http://www.w3.org/2000/svg">
<path d="M20.9606 15.344L20.6517 15.7372L20.7875 15.8439L20.9602 15.844L20.9606 15.344ZM38.7002 15.3575L38.6998 15.8576L38.7068 15.8575L38.7002 15.3575ZM38.6596 11.6122L38.6643 12.1122L38.6662 12.1121L38.6596 11.6122ZM28.4242 11.7068L28.0706 12.0604L28.219 12.2088L28.4288 12.2068L28.4242 11.7068ZM18.1753 1.45788L18.5288 1.10433L18.3824 0.957885L18.1753 0.957885L18.1753 1.45788ZM5.56012 1.45788L5.56012 0.957884L5.06012 0.957884L5.06012 1.45788L5.56012 1.45788ZM5.56012 8.55643L5.06012 8.55643L5.06012 9.05643L5.56012 9.05643L5.56012 8.55643ZM12.3206 8.55643L12.6295 8.16325L12.4936 8.05643L12.3206 8.05643L12.3206 8.55643ZM25.5442 11.5182L25.8944 11.875L25.8945 11.875L25.5442 11.5182ZM22.894 11.4911L23.2508 11.1408L23.2506 11.1406L22.894 11.4911ZM20.9602 15.844L38.6998 15.8575L38.7006 14.8575L20.961 14.844L20.9602 15.844ZM38.7068 15.8575C40.0075 15.8404 41.0697 14.7647 41.0525 13.458L40.0526 13.4711C40.0625 14.2196 39.4481 14.8476 38.6936 14.8576L38.7068 15.8575ZM41.0525 13.458C41.0354 12.1573 39.9598 11.095 38.653 11.1122L38.6662 12.1121C39.4147 12.1023 40.0427 12.7166 40.0526 13.4711L41.0525 13.458ZM38.655 11.1122L28.4196 11.2069L28.4288 12.2068L38.6643 12.1122L38.655 11.1122ZM28.7778 11.3533L18.5288 1.10433L17.8217 1.81144L28.0706 12.0604L28.7778 11.3533ZM18.1753 0.957885L5.56012 0.957884L5.56012 1.95788L18.1753 1.95788L18.1753 0.957885ZM5.06012 1.45788L5.06012 8.55643L6.06012 8.55643L6.06012 1.45788L5.06012 1.45788ZM5.56012 9.05643L12.3206 9.05643L12.3206 8.05643L5.56012 8.05643L5.56012 9.05643ZM12.0118 8.94961L20.6517 15.7372L21.2695 14.9508L12.6295 8.16325L12.0118 8.94961ZM25.2144 9.21829C25.739 9.75287 25.739 10.6262 25.1939 11.1614L25.8945 11.875C26.8366 10.9499 26.8366 9.44352 25.9281 8.51782L25.2144 9.21829ZM25.1939 11.1613C24.6594 11.686 23.7861 11.686 23.2508 11.1408L22.5373 11.8414C23.4623 12.7836 24.9687 12.7836 25.8944 11.875L25.1939 11.1613ZM23.2506 11.1406L18.4912 6.30006L17.7781 7.00116L22.5375 11.8417L23.2506 11.1406Z" fill="white"/>
<rect x="1.05273" y="0.5" width="4.32727" height="9.05761" stroke="white"/>
</svg>
