<svg width="36" height="25" viewBox="0 0 36 25" fill="none" xmlns="http://www.w3.org/2000/svg">
<path d="M2.56412 3.42547V2.92547H2.06412V3.42547H2.56412ZM5.76305 3.42547H6.26305V2.92547H5.76305V3.42547ZM29.5259 23.8024L29.2852 23.364L29.2761 23.3692L29.5259 23.8024ZM28.0635 23.8024L27.806 24.2311L27.8138 24.2355L28.0635 23.8024ZM25.5958 23.8024L25.8456 24.2356L25.8532 24.231L25.5958 23.8024ZM24.1334 23.8024L23.8759 24.2311L23.8837 24.2355L24.1334 23.8024ZM21.6657 23.8024L21.9155 24.2356L21.9231 24.231L21.6657 23.8024ZM20.2033 23.8024L19.9458 24.2311L19.9535 24.2355L20.2033 23.8024ZM17.7356 23.8024L17.9853 24.2356L17.993 24.231L17.7356 23.8024ZM16.2732 23.8024L16.0157 24.2311L16.0234 24.2355L16.2732 23.8024ZM13.8054 23.8024L14.0552 24.2356L14.0629 24.231L13.8054 23.8024ZM12.3431 23.8024L12.0856 24.2311L12.0933 24.2355L12.3431 23.8024ZM9.87533 23.8024L10.116 24.2406L10.1245 24.236L10.1328 24.231L9.87533 23.8024ZM5.94521 23.8024V24.3024H6.06396L6.17002 24.249L5.94521 23.8024ZM4.48285 23.8024L4.74029 23.3737L4.73199 23.3688L4.72351 23.3641L4.48285 23.8024ZM4.66628 20.9918V20.4918H4.42063L4.27051 20.6862L4.66628 20.9918ZM4.19059 21.1479C4.2768 21.4102 4.55935 21.553 4.82169 21.4668C5.08403 21.3806 5.22682 21.098 5.14061 20.8357L4.19059 21.1479ZM1.37527 10.979H0.875271C0.875271 11.032 0.883706 11.0847 0.900261 11.1351L1.37527 10.979ZM10.6065 10.979L11.0138 10.689C10.92 10.5572 10.7682 10.479 10.6065 10.479V10.979ZM12.9828 14.3166L12.5755 14.6066C12.6693 14.7383 12.8211 14.8166 12.9828 14.8166V14.3166ZM34.5527 14.3166L34.9791 14.5778C35.0272 14.4992 35.0527 14.4088 35.0527 14.3166L34.5527 14.3166ZM28.3683 23.4534C28.2241 23.6888 28.298 23.9967 28.5334 24.1409C28.7689 24.2852 29.0767 24.2113 29.221 23.9758L28.3683 23.4534ZM1.37527 6.06041V5.56041H0.875271V6.06041H1.37527ZM6.85915 6.06041L7.29241 5.81083L7.14815 5.56041H6.85915V6.06041ZM12.9826 2.98627V2.48627H12.4826L12.4826 2.98628L12.9826 2.98627ZM27.5149 2.98627H28.0149V2.48627H27.5149V2.98627ZM34.5525 6.58738L35.0525 6.58736L35.0525 6.08738H34.5525V6.58738ZM3.06412 6.06042V3.42547H2.06412V6.06042H3.06412ZM2.56412 3.92547H5.76305V2.92547H2.56412V3.92547ZM5.26305 3.42547V6.06042H6.26305V3.42547H5.26305ZM4.61738 3.42544V0H3.61738V3.42544H4.61738ZM33.2153 23.3641C32.8183 23.5822 32.5658 23.451 31.9072 23.2028C31.6008 23.0873 31.224 22.9634 30.7774 22.9566C30.3231 22.9496 29.8326 23.0635 29.2852 23.3641L29.7666 24.2406C30.1788 24.0142 30.4996 23.9525 30.7621 23.9565C31.0324 23.9606 31.2783 24.0344 31.5545 24.1385C32.0612 24.3294 32.8142 24.7253 33.6967 24.2406L33.2153 23.3641ZM29.2761 23.3692C28.9737 23.5436 28.6157 23.5436 28.3133 23.3692L27.8138 24.2355C28.4253 24.5882 29.1641 24.5882 29.7756 24.2355L29.2761 23.3692ZM28.321 23.3737C27.4313 22.8394 26.228 22.8394 25.3383 23.3737L25.8532 24.231C26.426 23.887 27.2333 23.887 27.8061 24.231L28.321 23.3737ZM25.346 23.3692C25.0436 23.5436 24.6856 23.5436 24.3832 23.3692L23.8837 24.2355C24.4952 24.5882 25.234 24.5882 25.8455 24.2355L25.346 23.3692ZM24.3909 23.3737C23.5012 22.8394 22.2978 22.8394 21.4082 23.3737L21.9231 24.231C22.4959 23.887 23.3032 23.887 23.876 24.231L24.3909 23.3737ZM21.4159 23.3692C21.1135 23.5436 20.7555 23.5436 20.4531 23.3692L19.9535 24.2355C20.5651 24.5882 21.3039 24.5882 21.9154 24.2355L21.4159 23.3692ZM20.4607 23.3737C19.5711 22.8394 18.3677 22.8394 17.4781 23.3737L17.993 24.231C18.5657 23.887 19.3731 23.887 19.9459 24.231L20.4607 23.3737ZM17.4858 23.3692C17.1834 23.5436 16.8254 23.5436 16.5229 23.3692L16.0234 24.2355C16.635 24.5882 17.3737 24.5882 17.9853 24.2355L17.4858 23.3692ZM16.5306 23.3737C15.641 22.8394 14.4376 22.8394 13.548 23.3737L14.0629 24.231C14.6356 23.887 15.443 23.887 16.0157 24.231L16.5306 23.3737ZM13.5557 23.3692C13.2533 23.5436 12.8952 23.5436 12.5928 23.3692L12.0933 24.2355C12.7049 24.5882 13.4436 24.5882 14.0552 24.2355L13.5557 23.3692ZM12.6005 23.3737C11.7109 22.8394 10.5075 22.8394 9.61789 23.3737L10.1328 24.231C10.7055 23.887 11.5129 23.887 12.0856 24.231L12.6005 23.3737ZM9.63466 23.3641C9.22918 23.5868 8.96462 23.4641 8.31872 23.2328C8.0149 23.1241 7.64265 23.0056 7.20248 22.9938C6.75478 22.9818 6.26783 23.0802 5.7204 23.3558L6.17002 24.249C6.58227 24.0415 6.90648 23.9862 7.17569 23.9934C7.45242 24.0008 7.70282 24.0745 7.98166 24.1743C8.50109 24.3603 9.2419 24.7206 10.116 24.2406L9.63466 23.3641ZM5.94521 23.3024C5.8588 23.3024 5.7897 23.3246 5.77174 23.3302C5.74282 23.3393 5.71641 23.3497 5.69924 23.3566C5.69516 23.3583 5.59393 23.4004 5.59242 23.4011C5.52138 23.43 5.4413 23.4589 5.3517 23.4776C5.18061 23.5134 4.97311 23.5136 4.74029 23.3737L4.22541 24.231C4.72377 24.5303 5.20175 24.5305 5.5562 24.4565C5.72937 24.4203 5.87208 24.3669 5.96955 24.3272C6.0523 24.2935 6.02176 24.3048 6.07302 24.2841C6.08351 24.2799 6.08094 24.2813 6.07179 24.2842C6.06674 24.2858 6.05447 24.2895 6.0373 24.2931C6.02198 24.2963 5.98883 24.3024 5.94521 24.3024V23.3024ZM4.72351 23.3641C4.17613 23.0635 3.68568 22.9496 3.23132 22.9566C2.7847 22.9634 2.40796 23.0873 2.10155 23.2028C1.44289 23.451 1.19048 23.5822 0.793402 23.3641L0.312067 24.2406C1.19456 24.7253 1.94753 24.3294 2.45419 24.1385C2.73044 24.0344 2.97635 23.9606 3.24663 23.9565C3.50918 23.9525 3.82989 24.0142 4.24218 24.2406L4.72351 23.3641ZM2.95989 24.0201L5.06205 21.2974L4.27051 20.6862L2.16835 23.409L2.95989 24.0201ZM4.66628 21.4918H30.4405V20.4918H4.66628V21.4918ZM5.14061 20.8357L1.85028 10.8229L0.900261 11.1351L4.19059 21.1479L5.14061 20.8357ZM1.37527 11.479H10.6065V10.479H1.37527V11.479ZM10.1992 11.269L12.5755 14.6066L13.3901 14.0266L11.0138 10.689L10.1992 11.269ZM12.9828 14.8166H34.5527V13.8166H12.9828V14.8166ZM34.1264 14.0554L28.3683 23.4534L29.221 23.9758L34.9791 14.5778L34.1264 14.0554ZM1.87527 10.979V6.06041H0.875271V10.979H1.87527ZM1.37527 6.56041H6.85915V5.56041H1.37527V6.56041ZM6.42589 6.30998L9.25923 11.2286L10.1257 10.7294L7.29241 5.81083L6.42589 6.30998ZM13.4828 14.3166L13.4826 2.98626L12.4826 2.98628L12.4828 14.3166L13.4828 14.3166ZM12.9826 3.48627H27.5149V2.48627H12.9826V3.48627ZM27.0149 2.98627V14.3166H28.0149V2.98627H27.0149ZM12.9826 7.08738H34.5525V6.08738H12.9826V7.08738ZM34.0525 6.58739L34.0527 14.3166L35.0527 14.3166L35.0525 6.58736L34.0525 6.58739ZM12.9826 11.2155H34.5525V10.2155H12.9826V11.2155ZM3.56838 9.10751H5.76194V8.10751H3.56838V9.10751Z" fill="white"/>
</svg>
