<svg width="31" height="34" viewBox="0 0 31 34" fill="none" xmlns="http://www.w3.org/2000/svg">
<path d="M22.2189 32.6096H0.566406V4.58857H6.36769M17.0946 4.58857H22.9161V16.0896M2.72817 11.1183H5.01645M2.72817 14.3111H5.01645M5.93155 14.3111H12.0485H13.9369M2.72817 17.5039H5.01645M5.93155 17.5039H13.9369M2.72817 20.6968H5.01645M5.93155 20.6968H14.3827M19.4837 24.7962L21.772 27.0845L26.3485 22.5079M2.72817 23.8315H5.01645M5.93155 23.8315H14.3827M2.72817 27.0275H5.01645M5.93155 27.0275H14.3827M13.3842 4.22836C13.3842 5.13573 12.6486 5.8713 11.7413 5.8713C10.8339 5.8713 10.0983 5.13573 10.0983 4.22836C10.0983 3.32099 10.8339 2.58542 11.7413 2.58542C12.6486 2.58542 13.3842 3.32099 13.3842 4.22836ZM17.2588 4.62183V7.28571H6.22389V4.62183C6.22389 3.98993 6.73615 3.47768 7.36804 3.47768H8.60214C8.94268 2.05976 10.2189 1 11.7413 1C13.2637 1 14.54 2.05976 14.8805 3.47768H16.1147C16.7465 3.47768 17.2588 3.98993 17.2588 4.62183ZM16.0512 19.2702V25.3618C16.0512 27.2745 17.0072 29.0607 18.5987 30.1217L22.9161 33L27.2335 30.1217C28.825 29.0607 29.781 27.2745 29.781 25.3618V19.2702H28.7291C26.5166 19.2702 24.4397 18.2039 23.1504 16.4059L22.9161 16.0793L22.6819 16.4059C21.3925 18.2039 19.3156 19.2702 17.1031 19.2702H16.0512Z" stroke="white"/>
</svg>
