<svg width="39" height="38" viewBox="0 0 39 38" fill="none" xmlns="http://www.w3.org/2000/svg">
<path d="M36.117 22.2998V22.2998C36.0246 23.0701 35.4819 23.711 34.7374 23.9292L33.3623 24.3321C33.0298 25.6224 32.5174 26.8597 31.84 28.0069L32.9711 30.0707C33.0827 30.2744 33.0655 30.525 32.9265 30.7108C31.9629 32.0046 30.8163 33.1517 29.5226 34.1154C29.3361 34.2537 29.0862 34.2709 28.8825 34.1599L26.8186 33.0288C25.6709 33.7057 24.4341 34.2181 23.1433 34.5512L22.4837 36.8098C22.4189 37.0331 22.2295 37.1975 21.9998 37.2314C20.4038 37.4647 18.7816 37.4647 17.1856 37.2314C16.9558 37.1975 16.7664 37.0331 16.7017 36.8098L16.0421 34.5512C14.7513 34.2181 13.5145 33.7057 12.3668 33.0288L10.3029 34.1599C10.0992 34.2709 9.84925 34.2537 9.66282 34.1154C8.36903 33.1517 7.2225 32.0046 6.25885 30.7108C6.11991 30.525 6.10269 30.2744 6.21432 30.0707L7.34541 28.0069C6.66794 26.8597 6.15554 25.6224 5.82304 24.3321L4.3417 23.8548C3.61365 23.6203 3.08643 22.9865 2.98828 22.2279V22.2279" stroke="white"/>
<rect x="1.65234" y="18.9963" width="35.8005" height="2.91176" stroke="white"/>
<path d="M27.8174 22.353C26.9545 26.1205 23.5817 28.931 19.5525 28.931C15.5233 28.931 12.1505 26.1205 11.2876 22.353" stroke="white"/>
<path d="M2.98778 18.4963C2.98778 9.96432 9.43831 2.93891 17.7286 2.03091M36.1172 18.4963C36.1172 9.96433 29.6667 2.93891 21.3764 2.03091" stroke="white"/>
<circle cx="19.5528" cy="14.105" r="2.46101" stroke="white"/>
<path d="M27.9912 18.6112V12.5876" stroke="white"/>
<path d="M11.0342 18.6112V12.5876" stroke="white"/>
<rect x="18.0967" y="1.06311" width="2.91176" height="6.90283" rx="1.45588" stroke="white"/>
</svg>
