<svg width="49" height="48" viewBox="0 0 49 48" fill="none" xmlns="http://www.w3.org/2000/svg">
<rect x="0.552734" width="48" height="48" rx="4" fill="#A0A0A0"/>
<path d="M25.9906 16.024C27.2546 16.024 27.6266 16.7414 27.6266 17.56C27.6266 18.584 26.788 19.5307 25.36 19.5307C24.1653 19.5307 23.5946 18.9414 23.628 17.9694C23.6293 17.1507 24.3293 16.024 25.9906 16.024ZM23.2293 31.976C22.404 31.976 21.7986 31.44 22.3773 29.0814L23.3266 24.9C23.4906 24.2294 23.5186 23.9614 23.3266 23.9614C23.0786 23.9614 22.0053 24.4254 21.372 24.88L20.96 24.1574C22.9706 22.3614 25.28 21.3094 26.2706 21.3094C27.0973 21.3094 27.2346 22.3547 26.8213 23.9627L25.736 28.3587C25.544 29.1347 25.6266 29.4027 25.8173 29.4027C26.0653 29.4027 26.8773 29.08 27.676 28.4094L28.144 29.08C26.1893 31.1707 24.056 31.976 23.2293 31.976Z" fill="white"/>
<path d="M9.88509 24.6667H8.55176V24C8.55176 15.1773 15.7291 8 24.5518 8C28.8251 8 32.8438 9.664 35.8651 12.6867L37.8691 14.66L36.9344 15.6093L34.9264 13.6333C32.1531 10.8587 28.4691 9.33333 24.5518 9.33333C16.4651 9.33333 9.88509 15.9133 9.88509 24V24.6667Z" fill="white"/>
<path d="M24.5522 40.0001C20.2775 40.0001 16.2602 38.3361 13.2388 35.3134L11.3188 33.4241L12.2535 32.4734L14.1775 34.3667C16.9508 37.1401 20.6348 38.6667 24.5522 38.6667C32.6388 38.6667 39.2188 32.0867 39.2188 24.0001V23.3334H40.5522V24.0001C40.5522 32.8227 33.3748 40.0001 24.5522 40.0001Z" fill="white"/>
<path d="M37.2188 16.0001H29.8855V14.6667H36.5522V8.00007H37.8855V15.3334L37.2188 16.0001Z" fill="white"/>
<path d="M12.5514 40.0001H11.2181V32.6667L11.8848 32.0001H19.2181V33.3334H12.5514V40.0001Z" fill="white"/>
</svg>
