<svg width="37" height="40" viewBox="0 0 37 40" fill="none" xmlns="http://www.w3.org/2000/svg">
<path d="M0.793945 37.3994L2.92088 38.4629C4.35315 39.179 6.039 39.179 7.47127 38.4629L9.5982 37.3994C11.0305 36.6833 12.7163 36.6833 14.1486 37.3994L16.2755 38.4629C17.7078 39.179 19.3936 39.179 20.8259 38.4629L22.9528 37.3994C24.3851 36.6833 26.071 36.6833 27.5032 37.3994L29.6349 38.4629C31.0671 39.179 32.753 39.179 34.1853 38.4629L36.3122 37.3994" stroke="white"/>
<path d="M32.1498 39V23.2698C32.1498 22.1652 31.2543 21.2698 30.1498 21.2698H6.95947C5.8549 21.2698 4.95947 22.1652 4.95947 23.2698V39" stroke="white"/>
<path d="M9.81641 28.8494V36.8347" stroke="white"/>
<path d="M27.3701 28.8494V36.8347" stroke="white"/>
<path d="M11.2933 9.63062H7.95166C7.39938 9.63062 6.95166 10.0783 6.95166 10.6306V15.835C6.95166 16.3873 7.39938 16.835 7.95166 16.835H24.1304C24.6827 16.835 25.1304 17.2827 25.1304 17.835V20.4133" stroke="white"/>
<path d="M27.4209 17.0982H30.856" stroke="white"/>
<circle cx="18.5547" cy="17.0982" r="2.07623" fill="white"/>
<path d="M24.7912 7.2369C24.7912 3.79235 21.9988 1 18.5543 1C15.1097 1 12.3174 3.79235 12.3174 7.2369" stroke="white"/>
<path d="M19.0773 10.3289C19.0773 10.0527 18.8535 9.82889 18.5773 9.82889C18.3012 9.82889 18.0773 10.0527 18.0773 10.3289H19.0773ZM17.9678 6.41193H22.899V5.41193H17.9678V6.41193ZM25.399 8.91193V11.0738H26.399V8.91193H25.399ZM22.899 13.5738H21.5773V14.5738H22.899V13.5738ZM19.0773 11.0738V10.3289H18.0773V11.0738H19.0773ZM21.5773 13.5738C20.1966 13.5738 19.0773 12.4545 19.0773 11.0738H18.0773C18.0773 13.0068 19.6443 14.5738 21.5773 14.5738V13.5738ZM25.399 11.0738C25.399 12.4545 24.2797 13.5738 22.899 13.5738V14.5738C24.832 14.5738 26.399 13.0068 26.399 11.0738H25.399ZM22.899 6.41193C24.2797 6.41193 25.399 7.53121 25.399 8.91193H26.399C26.399 6.97893 24.832 5.41193 22.899 5.41193V6.41193Z" fill="white"/>
<path d="M18.5267 6.41193H14.2061V5.41193H18.5267V6.41193ZM11.7061 8.91193V11.0738H10.7061V8.91193H11.7061ZM14.2061 13.5738H15.5278V14.5738H14.2061V13.5738ZM18.0278 11.0738V10.3289H19.0278V11.0738H18.0278ZM15.5278 13.5738C16.9085 13.5738 18.0278 12.4545 18.0278 11.0738H19.0278C19.0278 13.0068 17.4608 14.5738 15.5278 14.5738V13.5738ZM11.7061 11.0738C11.7061 12.4545 12.8254 13.5738 14.2061 13.5738V14.5738C12.2731 14.5738 10.7061 13.0068 10.7061 11.0738H11.7061ZM14.2061 6.41193C12.8254 6.41193 11.7061 7.53121 11.7061 8.91193H10.7061C10.7061 6.97893 12.2731 5.41193 14.2061 5.41193V6.41193Z" fill="white"/>
</svg>
