<svg width="42" height="17" viewBox="0 0 42 17" fill="none" xmlns="http://www.w3.org/2000/svg">
<path d="M20.9606 15.816L20.6517 16.2092L20.7875 16.3159L20.9602 16.316L20.9606 15.816ZM38.7002 15.8296L38.6998 16.3296L38.7068 16.3295L38.7002 15.8296ZM38.6596 12.0842L38.6643 12.5842L38.6662 12.5842L38.6596 12.0842ZM28.4242 12.1789L28.0706 12.5324L28.219 12.6808L28.4288 12.6789L28.4242 12.1789ZM18.1753 1.92993L18.5288 1.57638L18.3824 1.42993L18.1753 1.42993L18.1753 1.92993ZM5.56012 1.92993L5.56012 1.42993L5.06012 1.42993L5.06012 1.92993L5.56012 1.92993ZM5.56012 9.02848L5.06012 9.02848L5.06012 9.52848L5.56012 9.52848L5.56012 9.02848ZM12.3206 9.02848L12.6295 8.6353L12.4936 8.52848L12.3206 8.52848L12.3206 9.02848ZM25.5442 11.9902L25.8944 12.3471L25.8945 12.347L25.5442 11.9902ZM22.894 11.9632L23.2508 11.6129L23.2506 11.6126L22.894 11.9632ZM20.9602 16.316L38.6998 16.3296L38.7006 15.3296L20.961 15.316L20.9602 16.316ZM38.7068 16.3295C40.0075 16.3124 41.0697 15.2368 41.0525 13.93L40.0526 13.9432C40.0625 14.6917 39.4481 15.3197 38.6936 15.3296L38.7068 16.3295ZM41.0525 13.93C41.0354 12.6293 39.9598 11.5671 38.653 11.5843L38.6662 12.5842C39.4147 12.5743 40.0427 13.1887 40.0526 13.9432L41.0525 13.93ZM38.655 11.5843L28.4196 11.6789L28.4288 12.6789L38.6643 12.5842L38.655 11.5843ZM28.7778 11.8253L18.5288 1.57638L17.8217 2.28348L28.0706 12.5324L28.7778 11.8253ZM18.1753 1.42993L5.56012 1.42993L5.56012 2.42993L18.1753 2.42993L18.1753 1.42993ZM5.06012 1.92993L5.06012 9.02848L6.06012 9.02848L6.06012 1.92993L5.06012 1.92993ZM5.56012 9.52848L12.3206 9.52848L12.3206 8.52848L5.56012 8.52848L5.56012 9.52848ZM12.0118 9.42166L20.6517 16.2092L21.2695 15.4229L12.6295 8.6353L12.0118 9.42166ZM25.2144 9.69034C25.739 10.2249 25.739 11.0982 25.1939 11.6334L25.8945 12.347C26.8366 11.422 26.8366 9.91557 25.9281 8.98987L25.2144 9.69034ZM25.1939 11.6334C24.6594 12.1581 23.7861 12.158 23.2508 11.6129L22.5373 12.3135C23.4623 13.2557 24.9687 13.2556 25.8944 12.3471L25.1939 11.6334ZM23.2506 11.6126L18.4912 6.7721L17.7781 7.47321L22.5375 12.3137L23.2506 11.6126Z" fill="white"/>
<rect x="1.05273" y="0.972046" width="4.32727" height="9.05761" stroke="white"/>
</svg>
