<svg width="31" height="41" viewBox="0 0 31 41" fill="none" xmlns="http://www.w3.org/2000/svg">
<path d="M18.2538 31.7936H0.910156V4.49593H6.56167M17.0116 4.49593H22.6829V14.6464M3.01611 10.8571H5.24532M3.01611 13.9675H5.24532M6.13679 13.9675H12.0959H13.9355M3.01611 17.0779H5.24532M6.13679 17.0779H17.0116M3.01611 20.1883H5.24532M6.13679 20.1883H14.3698M3.01611 23.2421H5.24532M6.13679 23.2421H12.0959M3.01611 26.3556H5.24532M6.13679 26.3556H10.196M13.397 4.14502C13.397 5.02896 12.6805 5.74554 11.7965 5.74554C10.9126 5.74554 10.196 5.02896 10.196 4.14502C10.196 3.26107 10.9126 2.54449 11.7965 2.54449C12.6805 2.54449 13.397 3.26107 13.397 4.14502ZM17.1716 4.52833V7.12345H6.42159V4.52833C6.42159 3.91275 6.92062 3.41372 7.5362 3.41372H8.73844C9.07019 2.0324 10.3135 1 11.7966 1C13.2797 1 14.523 2.0324 14.8547 3.41372H16.057C16.6726 3.41372 17.1716 3.91274 17.1716 4.52833Z" stroke="white"/>
<path d="M26.7157 9.99413L22.457 23.4896L22.2517 24.14H22.9338H29.0835L15.9993 38.9095L19.962 26.3515L20.1673 25.701H19.4852H12.902L26.7157 9.99413Z" stroke="white"/>
</svg>
