<svg width="25" height="40" viewBox="0 0 25 40" fill="none" xmlns="http://www.w3.org/2000/svg">
<circle cx="12.5532" cy="12.8656" r="1.84229" stroke="white"/>
<path d="M8.26547 18.6677C6.48997 17.3537 5.33887 15.2441 5.33887 12.8657C5.33887 8.88175 8.56846 5.65216 12.5524 5.65216C16.5363 5.65216 19.7658 8.88175 19.7658 12.8657C19.7658 15.2441 18.6147 17.3537 16.8392 18.6677" stroke="white"/>
<path d="M7.05767 23.3847C3.27123 21.4025 0.6875 17.4358 0.6875 12.8656C0.6875 6.31243 5.99993 1 12.5531 1C19.1064 1 24.4188 6.31243 24.4188 12.8656C24.4188 17.4358 21.8351 21.4025 18.0486 23.3847" stroke="white"/>
<path d="M12.5142 13.4384L12.9957 13.3038C12.9353 13.0875 12.738 12.9381 12.5135 12.9384C12.2889 12.9387 12.0921 13.0887 12.0323 13.3051L12.5142 13.4384ZM5.92575 39.1333L12.9961 13.5717L12.0323 13.3051L4.96194 38.8667L5.92575 39.1333ZM12.0326 13.573L19.1789 39.1347L20.142 38.8654L12.9957 13.3038L12.0326 13.573Z" fill="white"/>
<path d="M9.62598 24.4792H15.4039" stroke="white"/>
<path d="M7.11719 32.6139H17.9126" stroke="white"/>
<path d="M7.3457 32.69L15.4804 24.5554" stroke="white"/>
<path d="M17.9126 32.69L9.77787 24.5554" stroke="white"/>
</svg>
