<svg width="39" height="29" fill="none" xmlns="http://www.w3.org/2000/svg"><path stroke="#fff" d="M1.454 19.689h15.559V28.5H1.454zm2.133-.143v9.159m2.27-9.159v9.159m2.269-9.159v9.159m2.269-9.159v9.159m2.27-9.159v9.159m2.27-9.159v9.159m7.158-9.016h15.559V28.5H22.093zm2.132-.143v9.159m2.271-9.159v9.159m2.269-9.159v9.159m2.269-9.159v9.159m2.269-9.159v9.159m2.27-9.159v9.159"/><path stroke="#fff" d="M11.773 10.959h15.559v8.811H11.773zm2.132-.143v9.158m2.271-9.158v9.158m2.269-9.158v9.158m2.269-9.158v9.158m2.269-9.158v9.158m2.27-9.158v9.158"/><path d="M34.155 7.526C32.913 6.36 26.795 1 19.554 1 12.306 1 6.194 6.36 4.952 7.526c1.243 1.164 7.36 6.525 14.602 6.525 7.247 0 13.36-5.36 14.601-6.525z" fill="#A0A0A0" stroke="#fff"/><ellipse cx="19.554" cy="7.526" rx="6.508" ry="6.526" fill="#A0A0A0" stroke="#fff"/><ellipse cx="19.554" cy="7.526" rx="2.039" ry="2.044" fill="#A0A0A0" stroke="#fff"/></svg>