<svg width="39" height="24" fill="none" xmlns="http://www.w3.org/2000/svg"><path d="M22.867 22.73c-.54.54-1.42.54-1.96 0l-3.16-3.16c-.54-.54-.54-1.42 0-1.96s1.42-.54 1.96 0l3.16 3.16c.54.54.54 1.42 0 1.96zm1.961-1.96c-.54.54-1.42.54-1.96 0l-3.16-3.16c-.54-.54-.54-1.42 0-1.96s1.42-.54 1.96 0l3.16 3.16c.54.55.54 1.43 0 1.96z" stroke="#fff" stroke-miterlimit="10"/><path d="M26.788 18.82c-.54.54-1.42.54-1.96 0l-3.16-3.16c-.54-.54-.54-1.42 0-1.96s1.42-.54 1.96 0l3.16 3.16c.53.54.53 1.42 0 1.96z" stroke="#fff" stroke-miterlimit="10"/><path d="M28.737 16.86c-.54.54-1.42.54-1.96 0l-3.16-3.16c-.54-.54-.54-1.42 0-1.96s1.42-.54 1.96 0l3.16 3.16c.54.54.54 1.42 0 1.96zm-16.85 0c-.54.54-1.42.54-1.96 0s-.54-1.42 0-1.96l8.11-8.1 2.27 2.13c.54.54 1.42.54 1.96 0s.54-1.42 0-1.96l-3.572-3.548a3 3 0 00-2.114-.872H5.197m14.731 1.78l.901-.901a3 3 0 012.121-.879h10.558" stroke="#fff" stroke-miterlimit="10"/><path d="M13.838 18.82c-.54.54-1.42.54-1.96 0s-.54-1.42 0-1.96l2.91-2.85m2.69 5.16l-1.68 1.61c-.54.54-1.42.54-1.96 0s-.54-1.42 0-1.96l2.91-2.85" stroke="#fff" stroke-miterlimit="10"/><path d="M19.278 21.25l-1.52 1.48c-.54.54-1.42.54-1.96 0s-.54-1.42 0-1.96m-10.631-9.4l1.676 1.728a3 3 0 002.154.912h1.83M5.138 1H.518v12.3h4.62V1zm28.359 10.37l-1.676 1.728a3 3 0 01-2.154.912h-1.83m5.68-.696h4.62v-12.3h-4.62v12.3z" stroke="#fff" stroke-miterlimit="10"/></svg>