<svg width="42" height="40" fill="none" xmlns="http://www.w3.org/2000/svg"><path d="M19.107 7.326h4.746V1h6.802v6.326h6.222v6.803h-6.222v3.499" stroke="#fff"/><path d="M7.904 24.887a2.556 2.556 0 100-5.113 2.556 2.556 0 000 5.113z" stroke="#fff" stroke-miterlimit="10"/><path d="M7.955 24.907h2.598l3.728 3.728a1.045 1.045 0 010 1.473l-.005.005a1.045 1.045 0 01-1.473 0L10.47 27.78v3.246l1.322 6.424a1.29 1.29 0 01-2.525.539l-1.343-6.025-1.337 6.025a1.29 1.29 0 01-2.525-.54l1.322-6.423V27.78L3.05 30.113a1.045 1.045 0 01-1.473 0l-.005-.005a1.045 1.045 0 010-1.473L5.3 24.907h2.654z" stroke="#fff" stroke-miterlimit="10" stroke-linecap="round" stroke-linejoin="round"/><path d="M21.218 24.887a2.556 2.556 0 100-5.112 2.556 2.556 0 000 5.112z" stroke="#fff" stroke-miterlimit="10"/><path d="M21.27 24.907h2.598l3.728 3.728a1.045 1.045 0 010 1.473l-.006.005a1.045 1.045 0 01-1.472 0l-2.333-2.333v3.246l1.322 6.424a1.29 1.29 0 01-2.525.539l-1.343-6.025L19.9 37.99a1.29 1.29 0 01-2.525-.54l1.322-6.423V27.78l-2.333 2.333a1.045 1.045 0 01-1.472 0l-.006-.005a1.045 1.045 0 010-1.473l3.728-3.728h2.655z" stroke="#fff" stroke-miterlimit="10" stroke-linecap="round" stroke-linejoin="round"/><path d="M34.554 24.887a2.556 2.556 0 100-5.113 2.556 2.556 0 000 5.113z" stroke="#fff" stroke-miterlimit="10"/><path d="M34.607 24.907h2.598l3.727 3.728a1.045 1.045 0 010 1.473l-.005.005a1.045 1.045 0 01-1.472 0L37.12 27.78v3.246l1.323 6.424a1.29 1.29 0 01-2.525.539l-1.343-6.025-1.338 6.025a1.29 1.29 0 01-2.525-.54l1.322-6.423V27.78l-2.333 2.333a1.045 1.045 0 01-1.473 0l-.005-.005a1.045 1.045 0 010-1.473l3.728-3.728h2.655z" stroke="#fff" stroke-miterlimit="10" stroke-linecap="round" stroke-linejoin="round"/><path d="M27.57 17.128H6.45c.261-5.606 4.889-10.071 10.56-10.071 5.67 0 10.297 4.465 10.558 10.07z" stroke="#fff"/><path d="M25.393 10.802C22.978 11.92 20.1 12.57 17.01 12.57c-3.09 0-5.967-.65-8.382-1.768" stroke="#fff"/><path d="M22.529 17.628c0-5.828-2.47-10.552-5.518-10.552-3.048 0-5.519 4.724-5.519 10.552M17.01 7.12v10.116" stroke="#fff"/></svg>