<svg width="35" height="34" fill="none" xmlns="http://www.w3.org/2000/svg"><path d="M17.354 33v.5h.5V33h-.5zm-8.418 0h-.5v.5h.5V33zm0-19.027l-.307-.395a.5.5 0 00.307.895v-.5zm8.418 0v.5a.5.5 0 00.312-.89l-.312.39zM2.536 7.054l-.294-.405-.206.15v.255h.5zm3.17 25.658v.5h.5v-.5h-.5zm-3.17 0h-.5v.5h.5v-.5zM.518 17.72h-.5v.5h.5v-.5zm0-5.478v-.5h-.5v.5h.5zm2.018 2.307h-.5v.5h.5v-.5zM10.896 1l.342-.365-.301-.282-.334.242.293.405zm15.483 6.124l-.004.5.121-.986-.117.486zM16.662 4.78l.117-.486-.058-.014h-.059v.5zm-2.587-2.478l.119-.485-.058-.015h-.06v.5zm19.466 9.79v.5a.5.5 0 00.354-.853l-.354.354zM21.59 22.144v-.5h-.5v.5h.5zm10.93 0h.5v-.5h-.5v.5zm0 7.202v.5h.5v-.5h-.5zm-10.93 0h-.5v.5h.5v-.5zm.277-22.256l-.003.5.003-.5zm-12.93.465h8.418v-1H8.936v1zm7.918-.5V33h1V7.054h-1zm.5 25.446H8.936v1h8.418v-1zm-7.918.5V7.054h-1V33h1zm-.5-18.527h8.418v-1H8.936v1zm-.058 6.342h8.649v-1h-8.65v1zm0 6.343h8.649v-1h-8.65v1zM8.613 7.436l4.267 3.604.645-.764-4.267-3.604-.645.764zm4.277 3.612l4.152 3.316.624-.782-4.152-3.315-.624.781zm-4.008 3.625l4.107 2.832.568-.823L9.45 13.85l-.568.823zm4.107 2.832l4.254 2.934.568-.824-4.254-2.933-.568.823zm-4.115 3.446l4.036 2.912.585-.811-4.036-2.912-.585.81zm4.036 2.912l4.036 2.912.585-.811-4.036-2.912-.585.81zm-4.025 3.495l4.07 2.762.56-.828-4.068-2.761-.562.827zm4.07 2.762l4.002 2.717.562-.828-4.003-2.717-.562.828zM9.241 14.368l4.267-3.316-.614-.79-4.266 3.316.613.79zm4.288-3.333l4.151-3.603-.655-.756-4.152 3.604.656.755zm-4.073 9.399l4.107-2.934-.582-.813-4.106 2.933.58.814zm4.107-2.934l3.965-2.832-.581-.814-3.966 2.833.582.813zm-4.105 9.275l4.036-2.912-.585-.811-4.036 2.912.585.81zm4.036-2.912l4.036-2.912-.585-.811-4.036 2.912.585.81zm-4.333 9.26l4.357-3.005-.568-.824L8.594 32.3l.568.823zm4.357-3.005l4.003-2.762-.568-.823-4.003 2.761.568.824zM8.936 6.554h-6.4v1h6.4v-1zm-3.73.5v7.496h1V7.054h-1zm0 7.496v3.17h1v-3.17h-1zm0 3.17v14.992h1V17.72h-1zm.5 14.492h-3.17v1h3.17v-1zm-2.67.5V17.72h-1v14.99h1zm2.67-15.491h-3.17v1h3.17v-1zm-3.17 0H.518v1h2.018v-1zm-1.518.5v-5.478h-1v5.478h1zm-.5-4.978h2.018v-1H.518v1zm5.189 1.307H2.536v1h3.17v-1zm-2.671.5v-2.307h-1v2.307h1zm0-2.307V7.054h-1v5.19h1zM2.829 7.46l8.36-6.054-.586-.81-8.36 6.054.586.81zm4.896-.15l3.6-6.053-.859-.512-3.6 6.054.86.512zm2.829-5.944l6.458 6.054.684-.73L11.238.635l-.684.73zm14.732 20.778c0-.893.723-1.616 1.616-1.616v-1a2.616 2.616 0 00-2.616 2.616h1zm1.616-1.616c.892 0 1.616.723 1.616 1.616h1a2.616 2.616 0 00-2.616-2.616v1zm-21.105-9.26h2.951v-1H5.797v1zm20.7-4.629l-9.718-2.344-.234.972 9.717 2.344.234-.972zM16.661 4.28h-1.738v1h1.738v-1zm11.163.867l-13.631-3.33-.237.971 13.63 3.33.238-.97zm-13.75-3.345h-1.738v1h1.738v-1zM29.16 7.24c0 .631-.512 1.143-1.143 1.143v1c1.183 0 2.143-.96 2.143-2.143h-1zm-1.143 1.143a1.143 1.143 0 01-1.143-1.143h-1c0 1.184.96 2.143 2.143 2.143v-1zM26.873 7.24c0-.631.511-1.143 1.143-1.143v-1c-1.184 0-2.143.96-2.143 2.143h1zm1.143-1.143c.63 0 1.143.512 1.143 1.143h1c0-1.183-.96-2.143-2.143-2.143v1zm.968 2.146l4.204 4.204.707-.707-4.204-4.204-.707.707zm4.557 3.35H17.658v1H33.54v-1zm-15.884-1.154H31.45v-1H17.657v1zm7.73 1.805v8.103h1v-8.103h-1zm2.084 0v8.103h1v-8.103h-1zm-5.883 10.4h10.93v-1h-10.93v1zm10.43-.5v7.202h1v-7.202h-1zm.5 6.702h-10.93v1h10.93v-1zm-10.43.5v-7.202h-1v7.202h1zM17.35 7.554l4.512.035.008-1-4.512-.035-.008 1zm4.512.035l4.513.035.008-1-4.513-.035-.008 1z" fill="#fff"/></svg>