<svg width="42" height="16" fill="none" xmlns="http://www.w3.org/2000/svg"><path d="M20.96 15.344l-.308.393.136.107h.172v-.5zm17.74.014v.5h.007l-.007-.5zm-.04-3.746l.004.5h.002l-.006-.5zm-10.236.095l-.353.353.148.149.21-.002-.005-.5zM18.175 1.457l.354-.353-.147-.146h-.207v.5zm-12.615 0v-.5h-.5v.5h.5zm0 7.1h-.5v.5h.5v-.5zm6.76 0l.31-.394-.136-.107h-.173v.5zm13.224 2.961l.35.357-.35-.357zm-2.65-.027l.357-.35-.357.35zm-1.934 4.353l17.74.014v-1l-17.739-.014v1zm17.747.014a2.381 2.381 0 002.346-2.4l-1 .013a1.381 1.381 0 01-1.36 1.387l.014 1zm2.346-2.4a2.381 2.381 0 00-2.4-2.346l.013 1a1.381 1.381 0 011.387 1.36l1-.014zm-2.398-2.346l-10.235.095.009 1 10.235-.095-.009-1zm-9.877.241L18.528 1.104l-.706.707 10.249 10.25.707-.708zM18.175.958H5.56v1h12.615v-1zm-13.115.5v7.098h1V1.458h-1zm.5 7.598h6.76v-1H5.56v1zm6.452-.106l8.64 6.787.617-.786-8.64-6.788-.617.787zm13.202.268a1.377 1.377 0 01-.02 1.943l.7.714a2.377 2.377 0 00.034-3.357l-.714.7zm-.02 1.943a1.377 1.377 0 01-1.943-.02l-.714.7a2.377 2.377 0 003.357.034l-.7-.714zm-1.943-.02L18.49 6.3l-.713.7 4.76 4.84.713-.7z" fill="#fff"/><path stroke="#fff" d="M1.053.5H5.38v9.058H1.053z"/></svg>