<svg width="36" height="25" fill="none" xmlns="http://www.w3.org/2000/svg"><path d="M2.564 3.425v-.5h-.5v.5h.5zm3.199 0h.5v-.5h-.5v.5zm23.763 20.377l-.24-.438-.01.005.25.433zm-1.462 0l-.258.43.008.003.25-.433zm-2.468 0l.25.434.007-.005-.257-.429zm-1.463 0l-.257.43.008.003.25-.433zm-2.467 0l.25.434.007-.005-.257-.429zm-1.463 0l-.257.43.007.003.25-.433zm-2.467 0l.25.434.007-.005-.257-.429zm-1.463 0l-.257.43.007.003.25-.433zm-2.468 0l.25.434.008-.005-.258-.429zm-1.462 0l-.257.43.007.003.25-.433zm-2.468 0l.241.439.008-.005.009-.005-.258-.429zm-3.93 0v.5h.119l.106-.053-.225-.447zm-1.462 0l.257-.428-.008-.005-.008-.005-.241.438zm.183-2.81v-.5h-.245l-.15.194.395.306zm-.475.156a.5.5 0 00.95-.312l-.95.312zM1.375 10.979h-.5a.5.5 0 00.025.156l.475-.156zm9.232 0l.407-.29a.5.5 0 00-.407-.21v.5zm2.376 3.338l-.408.29a.5.5 0 00.408.21v-.5zm21.57 0l.426.26a.5.5 0 00.074-.26h-.5zm-6.185 9.136a.5.5 0 00.853.523l-.853-.523zM1.375 6.06v-.5h-.5v.5h.5zm5.484 0l.433-.25-.144-.25H6.86v.5zm6.124-3.074v-.5h-.5v.5h.5zm14.532 0h.5v-.5h-.5v.5zm7.038 3.601h.5v-.5h-.5v.5zM3.064 6.06V3.425h-1V6.06h1zm-.5-2.135h3.199v-1H2.564v1zm2.699-.5V6.06h1V3.425h-1zm-.646 0V0h-1v3.425h1zm28.598 19.94c-.397.217-.65.086-1.308-.162-.306-.116-.683-.24-1.13-.246-.454-.007-.944.107-1.492.407l.482.877c.412-.227.733-.288.995-.285.27.005.516.078.793.183.506.19 1.26.586 2.142.102l-.482-.877zm-3.939.004a.951.951 0 01-.963 0l-.5.866a1.95 1.95 0 001.963 0l-.5-.866zm-.955.005a2.975 2.975 0 00-2.983 0l.515.857a1.977 1.977 0 011.953 0l.515-.857zm-2.975-.005a.951.951 0 01-.963 0l-.5.866a1.95 1.95 0 001.963 0l-.5-.866zm-.955.005a2.975 2.975 0 00-2.983 0l.515.857a1.977 1.977 0 011.953 0l.515-.857zm-2.975-.005a.951.951 0 01-.963 0l-.5.866a1.95 1.95 0 001.962 0l-.5-.866zm-.955.005a2.975 2.975 0 00-2.983 0l.515.857a1.977 1.977 0 011.953 0l.515-.857zm-2.975-.005a.951.951 0 01-.963 0l-.5.866a1.95 1.95 0 001.962 0l-.5-.866zm-.955.005a2.975 2.975 0 00-2.983 0l.515.857a1.977 1.977 0 011.953 0l.515-.857zm-2.975-.005a.951.951 0 01-.963 0l-.5.866a1.95 1.95 0 001.962 0l-.5-.866zm-.955.005a2.975 2.975 0 00-2.983 0l.515.857a1.977 1.977 0 011.953 0l.514-.857zm-2.966-.01c-.406.223-.67.1-1.316-.131-.304-.109-.676-.227-1.117-.24-.447-.011-.934.087-1.482.363l.45.893c.412-.207.736-.263 1.006-.256.276.008.527.082.806.181.52.186 1.26.547 2.134.067l-.481-.877zm-3.69-.062c-.086 0-.155.023-.173.028-.03.01-.056.02-.073.027l-.107.044a1.386 1.386 0 01-.24.077.809.809 0 01-.612-.104l-.515.857c.499.3.977.3 1.331.225.173-.036.316-.09.414-.129l.103-.043c.01-.004.008-.003-.001 0a.45.45 0 01-.127.018v-1zm-1.221.062c-.548-.3-1.038-.414-1.493-.407-.446.006-.823.13-1.13.246-.658.248-.91.38-1.308.161l-.48.877c.882.484 1.635.088 2.141-.102.276-.105.522-.178.793-.183.262-.003.583.058.995.285l.482-.877zm-1.764.656l2.102-2.723-.791-.61-2.103 2.722.792.611zm1.706-2.528H30.44v-1H4.666v1zm.475-.656L1.85 10.823l-.95.312 3.29 10.013.95-.312zm-3.766-9.357h9.232v-1H1.375v1zm8.824-.21l2.377 3.338.814-.58-2.376-3.338-.815.58zm2.784 3.548h21.57v-1h-21.57v1zm21.143-.762l-5.758 9.398.853.523 5.758-9.398-.853-.523zM1.876 10.98V6.06h-1v4.919h1zm-.5-4.419h5.483v-1H1.375v1zm5.05-.25l2.833 4.919.867-.5-2.834-4.918-.866.499zm7.057 8.007V2.987h-1v11.33h1zm-.5-10.83h14.532v-1H12.983v1zm14.032-.5v11.33h1V2.987h-1zm-14.032 4.1h21.57v-1h-21.57v1zm21.07-.5v7.73h1v-7.73h-1zm-21.07 4.629h21.57v-1h-21.57v1zm-9.415-2.11h2.194v-1H3.568v1z" fill="#fff"/></svg>