<svg width="31" height="34" fill="none" xmlns="http://www.w3.org/2000/svg"><path d="M22.219 32.61H.566V4.589h5.802m10.727 0h5.821v11.5M2.728 11.12h2.288m-2.288 3.19h2.288m.916 0h8.005M2.728 17.504h2.288m.916 0h8.005M2.728 20.697h2.288m.916 0h8.45m5.102 4.1l2.288 2.287 4.577-4.576M2.729 23.83h2.287m.916 0h8.45M2.729 27.028h2.288m.916 0h8.45m-.998-22.8a1.643 1.643 0 11-3.286 0 1.643 1.643 0 013.286 0zm3.875.394v2.664H6.224V4.622c0-.632.512-1.144 1.144-1.144h1.234A3.235 3.235 0 0111.742 1a3.235 3.235 0 013.138 2.478h1.235c.632 0 1.144.512 1.144 1.144zM16.05 19.27v6.092a5.72 5.72 0 002.548 4.76L22.916 33l4.317-2.878a5.72 5.72 0 002.548-4.76V19.27h-1.052a6.865 6.865 0 01-5.579-2.864l-.234-.327-.234.327a6.865 6.865 0 01-5.579 2.864h-1.052z" stroke="#fff"/></svg>