<svg width="39" height="38" fill="none" xmlns="http://www.w3.org/2000/svg"><path d="M36.117 22.3v0a1.938 1.938 0 01-1.38 1.63l-1.375.402a14.194 14.194 0 01-1.522 3.675l1.131 2.064a.593.593 0 01-.044.64 16.637 16.637 0 01-3.404 3.404.596.596 0 01-.64.045l-2.064-1.131a14.235 14.235 0 01-3.676 1.522l-.66 2.259a.594.594 0 01-.483.421 16.645 16.645 0 01-4.814 0 .594.594 0 01-.484-.421l-.66-2.259a14.235 14.235 0 01-3.675-1.522l-2.064 1.13a.596.596 0 01-.64-.044 16.637 16.637 0 01-3.404-3.404.593.593 0 01-.045-.64l1.131-2.064a14.191 14.191 0 01-1.522-3.675l-1.481-.477a1.975 1.975 0 01-1.354-1.627v0m-1.336-3.232h35.8v2.912h-35.8zm26.165 3.357a8.482 8.482 0 01-16.53 0m-8.299-3.857c0-8.532 6.45-15.557 14.74-16.465m18.39 16.465c0-8.532-6.451-15.557-14.742-16.465" stroke="#fff"/><circle cx="19.553" cy="14.105" r="2.461" stroke="#fff"/><path d="M27.991 18.611v-6.023m-16.957 6.023v-6.023" stroke="#fff"/><rect x="18.097" y="1.063" width="2.912" height="6.903" rx="1.456" stroke="#fff"/></svg>