<svg width="49" height="48" fill="none" xmlns="http://www.w3.org/2000/svg"><rect x=".553" width="48" height="48" rx="4" fill="#A0A0A0"/><path d="M25.99 16.024c1.265 0 1.637.717 1.637 1.536 0 1.024-.839 1.97-2.267 1.97-1.195 0-1.765-.589-1.732-1.56.001-.82.701-1.946 2.363-1.946zm-2.76 15.952c-.826 0-1.431-.536-.853-2.895l.95-4.181c.164-.67.192-.939 0-.939-.248 0-1.322.464-1.955.919l-.412-.723c2.01-1.796 4.32-2.848 5.31-2.848.827 0 .965 1.046.551 2.654l-1.085 4.396c-.192.776-.11 1.044.081 1.044.248 0 1.06-.323 1.859-.994l.468.671c-1.955 2.09-4.088 2.896-4.915 2.896z" fill="#fff"/><path d="M9.885 24.667H8.552V24c0-8.823 7.177-16 16-16a15.89 15.89 0 0111.313 4.687l2.004 1.973-.935.95-2.008-1.977a14.57 14.57 0 00-10.374-4.3c-8.087 0-14.667 6.58-14.667 14.667v.667zM24.552 40a15.89 15.89 0 01-11.313-4.687l-1.92-1.889.934-.95 1.925 1.893a14.576 14.576 0 0010.374 4.3c8.087 0 14.667-6.58 14.667-14.667v-.667h1.333V24c0 8.823-7.177 16-16 16z" fill="#fff"/><path d="M37.219 16h-7.334v-1.333h6.667V8h1.334v7.333l-.667.667zM12.551 40h-1.333v-7.333l.667-.667h7.333v1.333h-6.667V40z" fill="#fff"/></svg>