<svg width="37" height="40" fill="none" xmlns="http://www.w3.org/2000/svg"><path d="M.794 37.4l2.127 1.063a5.088 5.088 0 004.55 0l2.127-1.064a5.088 5.088 0 014.55 0l2.128 1.064a5.088 5.088 0 004.55 0l2.127-1.064a5.088 5.088 0 014.55 0l2.132 1.064a5.088 5.088 0 004.55 0l2.127-1.064" stroke="#fff"/><path d="M32.15 39V23.27a2 2 0 00-2-2H6.96a2 2 0 00-2 2V39m4.856-10.15v7.985M27.37 28.85v7.985M11.293 9.63H7.952a1 1 0 00-1 1v5.205a1 1 0 001 1H24.13a1 1 0 011 1v2.578m2.29-3.315h3.436" stroke="#fff"/><circle cx="18.555" cy="17.098" r="2.076" fill="#fff"/><path d="M24.791 7.237a6.237 6.237 0 00-12.474 0" stroke="#fff"/><path d="M19.077 10.329a.5.5 0 10-1 0h1zm-1.11-3.917H22.9v-1h-4.931v1zm7.432 2.5v2.162h1V8.912h-1zm-2.5 4.662h-1.322v1H22.9v-1zm-3.822-2.5v-.745h-1v.745h1zm2.5 2.5a2.5 2.5 0 01-2.5-2.5h-1a3.5 3.5 0 003.5 3.5v-1zm3.822-2.5a2.5 2.5 0 01-2.5 2.5v1a3.5 3.5 0 003.5-3.5h-1zm-2.5-4.662a2.5 2.5 0 012.5 2.5h1a3.5 3.5 0 00-3.5-3.5v1z" fill="#fff"/><path d="M18.527 6.412h-4.32v-1h4.32v1zm-6.82 2.5v2.162h-1V8.912h1zm2.5 4.662h1.32v1h-1.32v-1zm3.82-2.5v-.745h1v.745h-1zm-2.5 2.5a2.5 2.5 0 002.5-2.5h1a3.5 3.5 0 01-3.5 3.5v-1zm-3.82-2.5a2.5 2.5 0 002.5 2.5v1a3.5 3.5 0 01-3.5-3.5h1zm2.5-4.662a2.5 2.5 0 00-2.5 2.5h-1a3.5 3.5 0 013.5-3.5v1z" fill="#fff"/></svg>