<svg width="31" height="41" fill="none" xmlns="http://www.w3.org/2000/svg"><path d="M18.254 31.794H.91V4.496h5.652m10.45 0h5.67v10.15M3.017 10.857h2.23m-2.23 3.11h2.23m.89 0h7.8m-10.92 3.11h2.23m.89 0h10.876M3.016 20.189h2.23m.89 0h8.234M3.016 23.242h2.23m.89 0h5.96m-9.08 3.114h2.23m.89 0h4.06m3.201-22.211a1.6 1.6 0 11-3.2 0 1.6 1.6 0 013.2 0zm3.775.383v2.595H6.422V4.528c0-.615.499-1.114 1.114-1.114h1.202A3.151 3.151 0 0111.797 1a3.151 3.151 0 013.058 2.414h1.202c.616 0 1.115.499 1.115 1.114z" stroke="#fff"/><path d="M26.716 9.994L22.457 23.49l-.205.65h6.832L15.998 38.91l3.963-12.558.205-.651h-7.264L26.716 9.994z" stroke="#fff"/></svg>