<svg width="25" height="40" fill="none" xmlns="http://www.w3.org/2000/svg"><circle cx="12.553" cy="12.866" r="1.842" stroke="#fff"/><path d="M8.265 18.668a7.214 7.214 0 118.574 0m-9.781 4.717a11.864 11.864 0 01-6.37-10.52C.688 6.313 6 1 12.553 1S24.42 6.312 24.42 12.866c0 4.57-2.584 8.537-6.37 10.519" stroke="#fff"/><path d="M12.514 13.438l.482-.134a.5.5 0 00-.964.001l.482.133zM5.926 39.133l7.07-25.561-.964-.267-7.07 25.562.964.266zm6.107-25.56l7.146 25.562.963-.27-7.146-25.561-.963.269z" fill="#fff"/><path d="M9.626 24.48h5.778m-8.287 8.134h10.796m-10.567.076l8.134-8.135m2.433 8.135l-8.135-8.135" stroke="#fff"/></svg>